<?xml version="1.0" standalone="no"?>
<!DOCTYPE svg PUBLIC "-//W3C//DTD SVG 1.1//EN" "http://www.w3.org/Graphics/SVG/1.1/DTD/svg11.dtd" >
<svg xmlns="http://www.w3.org/2000/svg">
<metadata>
Created by FontForge 20120731 at Tue Mar  7 14:48:05 2017
 By admin
</metadata>
<defs>
<font id="iconfont" horiz-adv-x="1024" >
  <font-face 
    font-family="iconfont"
    font-weight="500"
    font-stretch="normal"
    units-per-em="1024"
    panose-1="2 0 6 3 0 0 0 0 0 0"
    ascent="896"
    descent="-128"
    x-height="792"
    bbox="-0.333333 -128 1639.03 896.923"
    underline-thickness="0"
    underline-position="0"
    unicode-range="U+0078-E691"
  />
<missing-glyph 
 />
    <glyph glyph-name=".notdef" 
 />
    <glyph glyph-name=".notdef" 
 />
    <glyph glyph-name=".null" horiz-adv-x="0" 
 />
    <glyph glyph-name="nonmarkingreturn" horiz-adv-x="341" 
 />
    <glyph glyph-name="x" unicode="x" horiz-adv-x="1001" 
d="M281 543q-27 -1 -53 -1h-83q-18 0 -36.5 -6t-32.5 -18.5t-23 -32t-9 -45.5v-76h912v41q0 16 -0.5 30t-0.5 18q0 13 -5 29t-17 29.5t-31.5 22.5t-49.5 9h-133v-97h-438v97zM955 310v-52q0 -23 0.5 -52t0.5 -58t-10.5 -47.5t-26 -30t-33 -16t-31.5 -4.5q-14 -1 -29.5 -0.5
t-29.5 0.5h-32l-45 128h-439l-44 -128h-29h-34q-20 0 -45 1q-25 0 -41 9.5t-25.5 23t-13.5 29.5t-4 30v167h911zM163 247q-12 0 -21 -8.5t-9 -21.5t9 -21.5t21 -8.5q13 0 22 8.5t9 21.5t-9 21.5t-22 8.5zM316 123q-8 -26 -14 -48q-5 -19 -10.5 -37t-7.5 -25t-3 -15t1 -14.5
t9.5 -10.5t21.5 -4h37h67h81h80h64h36q23 0 34 12t2 38q-5 13 -9.5 30.5t-9.5 34.5q-5 19 -11 39h-368zM336 498v228q0 11 2.5 23t10 21.5t20.5 15.5t34 6h188q31 0 51.5 -14.5t20.5 -52.5v-227h-327z" />
    <glyph glyph-name="shuaxin" unicode="&#xe638;" 
d="M702 64q-80 -56 -178 -55q-12 0 -25 1q-2 0 -5.5 0.5t-4.5 1.5q-13 1 -19 2q-1 1 -11 3q-12 3 -19 5l-8 3q-13 4 -21 7q0 1 -4 3q-14 6 -24 11h-1q-38 22 -69 53v1h-1l-18 20q-1 1 -2 2.5t-2 2.5q-66 84 -66 192h70q3 0 4.5 2.5t0.5 4.5l-119 180q-1 3 -4 3t-4 -3
l-119 -180q-2 -2 -0.5 -4.5t4.5 -2.5h71q0 -126 71 -230l0.5 -1t0.5 -2q3 -3 15 -19q0 -1 2 -3.5t3 -3.5q10 -12 23 -26q2 -2 3 -2q40 -41 90 -68l2 -2q13 -7 29 -14q1 -1 3.5 -2t4.5 -1q10 -5 25 -10q10 -3 13 -4q8 -3 23 -6q13 -3 16 -4q1 0 3 -0.5t3 -0.5q5 -1 23 -3
q1 -1 3.5 -1h4.5q22 -3 40 -3q125 0 228 74q17 11 20.5 31t-8 36.5t-31 20t-36.5 -8.5zM928 317q0 125 -71 228q0 1 -0.5 2t-0.5 2q-6 7 -18 23l-1 1l-1 1q-61 75 -149 114q-1 0 -2.5 1t-2.5 1q-12 5 -28 11q-1 0 -3 0.5t-4 1.5t-3 1q-10 3 -26 7q-12 2 -14 3q-1 0 -3 0.5
t-4 0.5q-3 1 -10 2t-9 1q-1 0 -5.5 0.5t-7.5 0.5q-13 2 -31 2h-3h-3h-0.5h-0.5q-126 0 -228 -73q-17 -11 -20.5 -31t8 -36.5t31 -20t36.5 8.5q79 56 176 55q14 0 27 -1q1 0 4 -0.5t4 -0.5q12 -2 21 -4q1 0 10 -2l20 -5q1 -1 3.5 -1.5t3.5 -0.5q12 -5 22 -9q1 0 1.5 -0.5
t1.5 -0.5q67 -29 114 -87h0.5t0.5 -1q69 -85 69 -194h-71q-3 0 -4.5 -3t0.5 -5l119 -180q1 -3 4 -3t4 3l119 180q1 2 -0.5 5t-4.5 3h-70v0z" />
    <glyph glyph-name="xiangshang2" unicode="&#xe636;" 
d="M887 279l-353 350l-1 0.5l-1 0.5v1q-10 9 -23 9t-22 -10l-350 -353q-10 -9 -10 -22.5t9.5 -22.5t23 -9t22.5 9l328 331l332 -330q10 -9 23 -9t22.5 9.5t9.5 23t-10 22.5z" />
    <glyph glyph-name="xiangxia2" unicode="&#xe637;" 
d="M890.5 565q-9.5 9 -23 9t-22.5 -9l-328 -331l-332 329q-10 10 -23 10t-22.5 -9.5t-9.5 -23t10 -22.5l353 -350l1 -0.5l1 -0.5v-1q10 -9 23 -9t22 9l350 354q10 9 10 22.5t-9.5 22.5z" />
    <glyph glyph-name="021sousuo" unicode="&#xe600;" 
d="M1008 -66l-263 258q111 121 111 283q0 114 -57 211t-156 153.5t-215 56.5t-214.5 -56.5t-156 -153.5t-57.5 -211.5t57.5 -211.5t156 -153.5t214.5 -56.5q152 0 270 94l263 -259q10 -10 23.5 -10t23.5 9.5t10 23t-10 23.5v0zM428 118q-98 0 -181.5 48t-132 130t-48.5 179
t48.5 179t132 129.5t182 47.5t181.5 -47.5t131.5 -129.5t48.5 -179t-48.5 -179t-131.5 -130t-182 -48v0zM428 118z" />
    <glyph glyph-name="022liebiaoyegouwuchetubiao" unicode="&#xe601;" 
d="M340 470l28 -144l372 -1l49 208h-461zM673 155q-9 0 -16 -6.5t-7 -16t7 -16t16 -6.5t16 6.5t7 16t-7 16t-16 6.5zM416 155q-9 0 -16 -6.5t-7 -16t7 -16t16 -6.5t16 6.5t7 16t-7 16t-16 6.5zM922 896h-820q-42 0 -72 -30t-30 -72v-820q0 -42 30 -72t72 -30h820q42 0 72 30
t30 72v820q0 42 -30 72t-72 30zM416 80q-22 0 -37.5 15.5t-15.5 37.5t15.5 37.5t37.5 15.5t37.5 -15.5t15.5 -37.5t-15.5 -37.5t-37.5 -15.5zM673 80q-22 0 -37.5 15.5t-15.5 37.5t15.5 37.5t37.5 15.5t37.5 -15.5t15.5 -37.5t-15.5 -37.5t-37.5 -15.5zM823 545l-57 -240
q-3 -12 -15 -12l-378 2l10 -48h350q6 0 10.5 -4.5t4.5 -10.5t-4.5 -10.5t-10.5 -4.5h-363q-13 0 -15 12l-61 317v0l-20 108h-55q-6 0 -10.5 4.5t-4.5 11t4.5 11t10.5 4.5h68q12 0 15 -12l20 -109h486q7 0 12 -6q5 -5 3 -13z" />
    <glyph glyph-name="031shangpingouwuchetubiao" unicode="&#xe602;" horiz-adv-x="1029" 
d="M1023 666q-8 10 -20 10h-807l-34 180q-2 9 -8.5 14.5t-16.5 5.5h-112q-10 0 -17.5 -7.5t-7.5 -17.5t7.5 -17.5t17.5 -7.5h92l32 -180v0l101 -527q2 -8 9.5 -14t16.5 -6h602q10 0 17.5 7.5t7.5 18t-7.5 17.5t-17.5 7h-581l-16 80l628 -4v0q8 0 15 6.5t9 14.5l94 399
q3 12 -4 21v0zM889 279l-617 1l-46 240l-20 105h765l-82 -346v0zM889 279zM352 47q-36 0 -62 -25.5t-26 -62t26 -62t62 -25.5t62 25.5t26 62t-26 62t-62 25.5v0zM352 -78q-15 0 -26.5 11t-11.5 26.5t11.5 26.5t27 11t26.5 -11t11 -26.5t-11 -26.5t-27 -11v0zM352 -78z
M778 47q-36 0 -61.5 -25.5t-25.5 -62t25.5 -62t62 -25.5t62 25.5t25.5 62t-25.5 62t-62.5 25.5v0zM778 -78q-15 0 -26 11t-11 26.5t11 26.5t26.5 11t26.5 -11t11 -26.5t-11 -26.5t-27 -11v0zM778 -78z" />
    <glyph glyph-name="0321pingjiaxingxingkongxin" unicode="&#xe603;" 
d="M322 257l-204 208l276 36l120 256l118 -256l275 -39l-202 -206l43 -268l-234 134l-237 -133l45 268v0zM514 894l-159 -337l-352 -53l255 -261l-60 -370l316 175l316 -175l-61 370l255 261l-352 53l-158 337v0zM514 894z" />
    <glyph glyph-name="0322pingjiaxingxingshixin" unicode="&#xe604;" 
d="M1024 504l-352 53l-158 337l-159 -337l-352 -53l255 -261l-60 -370l316 175l316 -175l-61 370z" />
    <glyph glyph-name="0402lajitong" unicode="&#xe606;" horiz-adv-x="1030" 
d="M1002 760h-259l-101 98q-8 7 -19 7h-217q-11 0 -19 -7l-100 -98h-260q-11 0 -19 -8t-8 -18.5t8 -18.5t19 -8h271q11 0 19 8l101 98h194l100 -98q8 -8 19 -8h271q12 0 19.5 8t7.5 18.5t-7.5 18.5t-19.5 8v0v0zM894 602q-11 0 -19 -8t-8 -19v-580q0 -21 -16 -36.5
t-38 -15.5h-596q-23 0 -38.5 15.5t-15.5 36.5v580q0 11 -8 19t-19.5 8t-19.5 -8t-8 -19v-580q0 -43 32 -74t77 -31h596q45 0 76.5 31t31.5 74v580q0 11 -8 19t-19 8v0v0zM406 75v500q0 11 -8 19t-19 8t-19 -8t-8 -19v-500q0 -11 8 -19t19 -8t19 8t8 19v0v0zM677 75v500
q0 11 -8 19t-19 8t-19 -8t-8 -19v-500q0 -11 8 -19t19 -8t19 8t8 19v0v0zM677 75z" />
    <glyph glyph-name="0601dingdan" unicode="&#xe607;" horiz-adv-x="1025" 
d="M213 502h598v-79h-598v79v0zM213 344h598v-78h-598v78v0zM213 187h598v-79h-598v79v0zM982 856h-171v40h-128v-40h-342v40h-128v-40h-170q-18 0 -30.5 -11.5t-12.5 -27.5v-906q0 -16 12.5 -27.5t30.5 -11.5h939q17 0 29.5 11.5t12.5 27.5v906q0 16 -12.5 27.5t-29.5 11.5
v0zM213 777v-39h128v39h342v-39h128v39h128v-118h-854v118h128v0zM85 -49v669h854v-669h-854v0zM85 -49z" />
    <glyph glyph-name="0602jifen" unicode="&#xe608;" horiz-adv-x="1026" 
d="M414 525q99 0 191 20t150 56v-91h74v200q0 58 -62.5 101.5t-155.5 64t-196.5 20.5t-196.5 -20.5t-155.5 -64t-62.5 -101.5v-547q0 -57 62.5 -100.5t155 -64t196.5 -20.5v69q-75 0 -141 11.5t-108.5 28.5t-66.5 37.5t-24 38.5v165q58 -37 150 -57t190 -20v69
q-75 0 -141 11.5t-108.5 29t-66.5 37.5t-24 39v164q58 -36 150 -56t190 -20v0v0zM414 826q76 0 142 -11t108.5 -28.5t66.5 -37.5t24 -38.5t-24 -39t-66.5 -38t-108.5 -28.5t-141.5 -11t-141.5 11t-108.5 28.5t-66.5 38t-24 39t24 38.5t66.5 37.5t108.5 28.5t141 11v0v0z
M746 487q-131 0 -205.5 -39.5t-74.5 -92.5v-351q0 -53 74.5 -92.5t205.5 -39.5q129 0 203.5 39t75.5 91v0v353q0 53 -74.5 92.5t-204.5 39.5v0v0zM746 417q38 0 72.5 -4.5t58 -11.5t41 -15.5t25.5 -16.5t8 -14t-8 -13.5t-25.5 -16t-41 -16t-58 -12t-73 -4.5t-73 4.5t-58 12
t-41 16t-25.5 16t-8 13.5t8 14t25.5 16.5t41 15.5t58 11.5t73.5 4.5v0v0zM746 -59q-39 0 -73.5 5t-58 12t-41 15.5t-25.5 16.5t-8 14v84q78 -40 205.5 -40t205.5 40v-84q0 -6 -8 -14t-25.5 -16.5t-41 -15.5t-58 -12t-72.5 -5v0v0zM746 117q-39 0 -73.5 4.5t-58 12t-41 16
t-25.5 16.5t-8 13v84q78 -40 206 -40q127 0 205 40v-84q0 -5 -8 -13t-25.5 -16.5t-41 -16t-58 -12t-72.5 -4.5v0v0zM746 117z" />
    <glyph glyph-name="0603tihuoma" unicode="&#xe609;" 
d="M927 685h-235v-60h187l76 -331h-248l-90 -121h-210l-90 121h-248l76 331h187v60h-235l-97 -422l98 -391h828l98 391l-97 422v0zM879 -68h-734l-76 301h217l91 -120h270l90 120h218l-76 -301v0zM879 -68zM362 378h300v331h130l-280 187l-280 -187h130v-331v0zM422 763
l90 61l90 -61v-325h-180v325v0zM422 763z" />
    <glyph glyph-name="0604youhuiquan" unicode="&#xe60a;" 
d="M422 144h-92q-21 0 -36 -11.5t-15 -28t15 -28.5t36 -12h92q22 0 36.5 12t14.5 28.5t-14.5 28t-36.5 11.5zM1024 15v816q0 27 -20 46t-49 19h-268q-24 0 -43 -15t-24 -38q-8 -36 -38.5 -59.5t-69.5 -23.5t-69.5 23.5t-38.5 59.5q-5 23 -24 38t-43 15h-268q-29 0 -49 -19
t-20 -45v-867v0v0v-28q0 -27 20.5 -46t48.5 -19h886q29 0 49 19t20 46v78v0v0zM913 -62h-793q-29 0 -40 10.5t-11 38.5v28v0v0v50q1 0 3 -0.5t3 -0.5h92q22 0 36.5 12t14.5 28.5t-14.5 28t-36.5 11.5h-92h-3t-3 -1v654q0 14 10 24t24 10h208q24 0 32 -22q19 -51 65.5 -82.5
t103.5 -31.5t103.5 31.5t65.5 82.5q8 22 32 22h208q14 0 24 -10t10 -24v-654l-4 0.5t-6 0.5h-92q-21 0 -36 -11.5t-15 -28t15 -28.5t36 -12h92q2 0 3.5 0.5t3.5 1t3 0.5v-68q0 -30 -8.5 -45t-33.5 -15zM684 144h-92q-22 0 -36.5 -11.5t-14.5 -28t14.5 -28.5t36.5 -12h92
q21 0 35.5 12t14.5 28.5t-14.5 28t-35.5 11.5zM537 211h2v118h111h9v1q20 7 20 27q0 12 -8.5 20.5t-20.5 8.5h-111v44h111h9v1q20 7 20 27q0 12 -8.5 20.5t-20.5 8.5h-111v24l116 113l6 6l-1 1q4 5 4 13q1 11 -7 20t-20 9.5t-21 -7.5l-106 -103l-112 109q-8 7 -20.5 6.5
t-19.5 -9.5q-14 -15 -3 -33l-1 -1l127 -123v-25h-120v-2q-20 -6 -20 -26.5t20 -27.5v-1h120v-44h-120v-2q-20 -6 -20 -26.5t20 -27.5v-1h120v-109v-9h1q7 -20 28 -20t27 20v0v0zM537 211z" />
    <glyph glyph-name="0605shouhuodizhi" unicode="&#xe60b;" horiz-adv-x="1025" 
d="M967 -128h-912q-33 0 -48 25t1 54l132 246q6 12 18.5 16t24.5 -2.5t16 -19t-2 -24.5l-124 -231h873l-217 355l-160 -261q-17 -28 -46 -28q-29 -1 -47 27q-12 19 -30 49t-59 104.5t-72 141.5t-55 143.5t-22 126.5q3 69 27.5 126.5t63.5 94t86.5 57.5t97.5 24
q48 2 94 -14.5t86.5 -50t69.5 -91.5t38 -132q2 -13 -6 -23.5t-21.5 -12.5t-24 6.5t-12.5 21.5q-8 63 -31 110.5t-55 73.5t-66 37.5t-69 10.5q-82 -4 -145.5 -68.5t-67.5 -171.5q-3 -58 40 -165.5t88.5 -192.5t90.5 -157l160 262q17 28 46.5 28t46.5 -28l237 -388
q18 -28 3.5 -53.5t-48.5 -25.5v0zM967 -128zM524 441q-49 0 -83 34t-34 82t34 82t82.5 34t83 -34t34.5 -82t-34.5 -82t-82.5 -34v0zM524 609q-22 0 -37.5 -15t-15.5 -36.5t15.5 -37t37 -15.5t37 15.5t15.5 37t-15.5 36.5t-36.5 15v0zM524 609z" />
    <glyph glyph-name="0606zhanghushezhi" unicode="&#xe60c;" 
d="M960 480l-82 19q-10 28 -25 58l45 74q14 23 15.5 46t-15.5 45l-46 45q-20 18 -46 17.5t-46 -14.5l-72 -46q-29 15 -59 25l-18 83q-5 24 -23.5 43.5t-44.5 19.5h-63q-25 0 -41.5 -19t-22.5 -45l-21 -82q-32 -10 -62 -26l-74 47q-21 14 -46.5 14.5t-45.5 -17.5l-46 -45
q-17 -21 -15.5 -44.5t15.5 -46.5l47 -77q-14 -29 -23 -55l-82 -19q-24 -4 -43.5 -23t-19.5 -44v-64q0 -25 19 -41.5t45 -22.5l83 -21q8 -25 21 -51l-47 -78q-14 -22 -15.5 -45.5t15.5 -44.5l46 -45q20 -18 46 -17.5t46 14.5l74 47q31 -16 63 -26l20 -82q6 -26 22.5 -45
t41.5 -19h64q25 0 44 19.5t23 43.5l19 84q29 9 58 24l72 -46q20 -14 46 -14.5t46 17.5l46 45q17 21 15.5 44.5t-15.5 45.5l-45 74q14 28 23 55l83 21q26 6 45 22.5t19 41.5v64q0 25 -19.5 44t-43.5 23v0v0zM959 353q-6 -4 -14 -6l-119 -29l-11 -34q-7 -23 -19 -46l-16 -31
l63 -105q5 -8 6 -15l-42 -42q-8 3 -11 4l-105 68l-33 -17q-24 -13 -48 -21l-35 -11l-26 -119q-2 -9 -7 -13h-58q-4 6 -6 14l-29 118l-34 11q-26 8 -52 22l-33 17l-105 -67q-7 -5 -13 -5l-42 41q1 7 5 14l66 109l-16 32q-11 22 -17 42l-11 34l-118 29q-9 2 -15 6v60v0
q1 0 2.5 1t4 2t4.5 1l120 27l11 35q7 22 19 46l16 31l-65 108q-5 9 -6 16l42 42q8 -3 11 -5l107 -68l33 17q25 14 51 22l34 11l30 117q2 9 6 15h59l1 -2t2.5 -4.5t1.5 -4.5l27 -121l35 -11q24 -8 48 -21l33 -17l103 66q7 4 13 4l42 -40q-1 -7 -6 -15l-63 -105l16 -32
q13 -25 20 -49l11 -35l119 -26q10 -2 13 -8v-57v0zM512 576q-80 0 -136.5 -56.5t-56.5 -136t56.5 -136t136.5 -56.5t136 56.5t56 136t-56 136t-136 56.5v0v0zM511 256q-52 0 -89.5 37.5t-37.5 90t37.5 90t90 37.5t90 -37.5t37.5 -90t-37.5 -90t-90.5 -37.5v0v0zM511 256z
" />
    <glyph glyph-name="06061xiugaimima" unicode="&#xe60d;" 
d="M458 217q-13 0 -22 -9t-9 -21q0 -14 9 -23t22 -9h22q2 -42 33 -42q17 0 25 13t7 34v197q38 11 62.5 42.5t24.5 72.5q0 49 -35 84t-84.5 35t-85 -35t-35.5 -84q0 -41 25 -73t63 -43v-59h-3h-40q-13 0 -22 -9t-9 -21.5t9 -21.5t22 -9h40q2 0 3 1v-20h-22v0zM452 472
q0 25 17.5 42.5t42.5 17.5t42.5 -17.5t17.5 -42.5t-17.5 -42.5t-42.5 -17.5t-42.5 17.5t-17.5 42.5v0zM452 472zM150 140l-15 24q-59 102 -59 220q0 89 34.5 169.5t93 139t139 93t169.5 34.5q142 0 267 -90l15 -10l-59 -52h163v145l-48 -43l-12 10h-1v0q-59 46 -143.5 81
t-181.5 35q-104 0 -198.5 -41t-163.5 -109.5t-109.5 -163t-40.5 -198.5q0 -144 75 -266q10 -17 22 -33v1q11 -13 27 -13t27 11t11 27q0 13 -9 24q-1 2 -3 5v0zM150 140zM971 611v-1q-10 23 -35 23q-15 0 -26 -11t-11 -26q0 -9 4 -18q1 -2 1 -4q20 -42 27 -67q17 -60 17 -123
q0 -89 -34.5 -169.5t-93 -139t-139 -93.5t-169.5 -35q-100 0 -194 46q-11 6 -23 12l36 62l-151 -22l48 -156l29 50q21 -11 50 -24q101 -43 205 -43t198.5 40.5t163.5 109t109.5 163.5t40.5 199q0 120 -53 227v0zM971 611z" />
    <glyph glyph-name="0607dianhua" unicode="&#xe60e;" horiz-adv-x="1026" 
d="M645 -128q-9 0 -18 1q-196 28 -406 244q-115 119 -173 228t-46 184v0q5 28 24.5 55.5t41.5 45.5t49 34.5t39 22t20 8.5q9 4 19.5 1t16.5 -12l127 -202q6 -11 2 -22.5t-16 -16.5v0q-15 -8 -19 -26q-13 -53 75 -151q77 -86 145 -88q40 -2 67 23q7 8 18 8.5t20 -5.5
l200 -142q9 -6 11 -15.5t-2 -18.5q-4 -8 -11 -19.5t-27 -38t-41.5 -46.5t-53 -36t-62.5 -16v0zM176 635q-42 -22 -77 -52t-40 -62v0q-9 -56 39.5 -152t164.5 -215q196 -202 373 -227q38 -6 75.5 27.5t65.5 78.5l-163 116q-42 -27 -88 -25q-95 2 -189 107q-107 120 -87 200
q7 26 26 44l-100 160v0zM176 635zM997 310q-11 0 -19 6.5t-10 16.5q-3 26 -8 49q-3 11 3.5 20.5t18.5 11.5t21.5 -4t12.5 -17q6 -27 9 -53q2 -11 -5.5 -20t-19.5 -10h-3v0zM953 471q-20 0 -27 17q-6 15 -14 29q-34 70 -86 130q-119 139 -296 196q-12 4 -17 14t-1 20.5
t14.5 15.5t21.5 1q194 -62 323 -213q56 -65 93 -141q8 -16 15 -32q5 -11 0 -21t-16 -14q-5 -2 -10 -2v0zM953 471zM822 313q-10 0 -18 6.5t-10 16.5q-21 116 -101 209t-196 137q-11 4 -16 14.5t-0.5 21t15.5 14.5t22 0q130 -49 219 -153q89 -103 114 -234q2 -11 -5 -20
t-19 -11q-2 -1 -5 -1v0zM822 313zM644 322q-22 0 -28 20q-17 56 -57 101q-40 47 -96 75q-10 5 -13.5 16t2 21t17 13t22.5 -2q65 -33 113 -89q46 -53 67 -120q4 -11 -2 -20.5t-17 -12.5q-4 -2 -8 -2v0zM644 322z" />
    <glyph glyph-name="06082weixinhui" unicode="&#xe60f;" 
d="M691 656q16 0 35 -2q-24 104 -127.5 173t-237.5 69q-98 0 -181 -39t-131.5 -106.5t-48.5 -147.5q0 -137 145 -233l-37 -104l127 60q91 -17 126 -17q16 0 34 1q-11 37 -11 73q0 113 89.5 193t217.5 80v0zM497 749q20 0 32.5 -11.5t12.5 -31t-12.5 -31.5t-32.5 -12
q-21 0 -37.5 12.5t-16.5 31t16.5 30.5t37.5 12v0zM244 663q-21 0 -37.5 12.5t-16.5 31t16.5 30.5t37.5 12q20 0 32.5 -11.5t12.5 -31t-12.5 -31.5t-32.5 -12v0zM1021 387q0 67 -42.5 125t-113.5 91.5t-151 33.5q-129 0 -218 -73t-89 -177t89 -177.5t218 -73.5q36 0 108 18
l99 -52l-27 86q127 91 127 199v0zM614 430q-13 0 -24.5 11t-11.5 23.5t11.5 23.5t24.5 11q20 0 33 -10.5t13 -24t-13 -24t-33 -10.5v0zM813 430q-13 0 -24.5 11t-11.5 23.5t11.5 23.5t24.5 11q20 0 32.5 -10.5t12.5 -24t-12.5 -24t-32.5 -10.5v0zM813 430z" />
    <glyph glyph-name="06083weixingou" unicode="&#xe610;" horiz-adv-x="1026" 
d="M346 -20l-346 346l77 78l269 -269l602 602l78 -77zM346 -20z" />
    <glyph glyph-name="0609jiantou" unicode="&#xe611;" 
d="M12 883q-12 -12 -12 -29.5t13 -30.5l439 -435l-438 -442q-12 -13 -12 -30.5t12.5 -30t30 -12t30.5 12.5l465 470l0.5 1t1.5 1v0v0q13 13 13 30q0 18 -13 30l-470 466q-12 12 -29.5 12t-30.5 -13v0v0zM12 883z" />
    <glyph glyph-name="0710shouyehui" unicode="&#xe616;" horiz-adv-x="1025" 
d="M461 864l-450 -444q-11 -11 -11 -26.5t11 -26.5t27 -11t27 11l447 440l447 -440q11 -11 27 -11t27 11t11 26.5t-11 26.5l-450 444q-9 10 -25 21t-24 10q-19 7 -53 -31v0zM187 281q-17 0 -33.5 -11.5t-16.5 -25.5v-271q0 -42 29.5 -71.5t72.5 -29.5h546q43 0 72.5 29.5
t29.5 71.5v271q0 37 -24 37q-17 0 -30.5 -11t-13.5 -26v-218q0 -36 -25.5 -61t-61.5 -25h-440q-36 0 -61.5 25t-25.5 61v218v8v8t-0.5 6.5t-1.5 6.5t-3 4.5t-5.5 3t-7.5 0.5v0zM187 281z" />
    <glyph glyph-name="0711fenleihui" unicode="&#xe617;" 
d="M460 411h25v25v217q0 101 -71 172t-171.5 71t-171.5 -71t-71 -171.5t71 -171.5t172 -71h217v0zM51 653q0 80 56 136t135.5 56t135.5 -56t56 -136v-217l26 26h-217q-80 0 -136 56t-56 135v0zM460 308l-26 26v-217q0 -80 -56 -136t-135.5 -56t-135.5 56t-56 135.5t56 135.5
t136 56h217v0zM0 117q0 -101 71 -172t171.5 -71t171.5 71t71 172v217v25h-25h-217q-101 0 -172 -71t-71 -171v0zM562 462l26 -26v217q0 80 56 136t135.5 56t135.5 -56t56 -135.5t-56 -135.5t-136 -56h-217v0zM1022 653q0 101 -71 172t-171.5 71t-171.5 -71t-71 -172v-217
v-25h25h217q101 0 172 71t71 171v0zM1022 117q0 100 -71 171t-172 71h-217h-25v-25v-217q0 -101 71 -172t171 -71q57 0 107 25q10 5 13.5 15t-1.5 19.5t-15 12.5t-19 -1q-40 -20 -85 -20q-79 0 -135 56t-56 136v217l-26 -26h217q80 0 136 -56t56 -135q0 -28 -8 -55
q-3 -10 2 -19t15 -12t19.5 2t12.5 15q10 33 10 69v0zM1022 117z" />
    <glyph glyph-name="0713wodehui" unicode="&#xe618;" 
d="M794 594q0 125 -86 213t-207.5 88t-207.5 -88t-86 -213t86 -213.5t207.5 -88.5t207.5 88.5t86 213.5v0zM258 594q0 103 71 176t171.5 73t171.5 -73t71 -176.5t-71 -176.5t-171.5 -73t-171.5 73t-71 177v0zM3 -102v-26h25h460h510h26v26q0 87 -41.5 169t-110.5 143
t-163.5 97.5t-195.5 36.5q-24 0 -49 -2q-7 0 5 -8q18 -12 19 -20q7 1 12.5 -10.5t12.5 -11.5q91 0 176 -33t147 -87t99.5 -126t37.5 -148l25 26h-510h-460l26 -26q0 104 59.5 194.5t163.5 143.5q10 5 13 15t-1.5 20t-14.5 13.5t-20 -1.5q-116 -60 -183.5 -162.5
t-67.5 -222.5v0zM3 -102z" />
    <glyph glyph-name="0712gouwuchehui" unicode="&#xe619;" horiz-adv-x="1025" 
d="M224 185q10 -29 36.5 -48t55.5 -19h553h20l5 19l127 442q10 33 -9 58t-53 25h-540q-10 0 -17.5 -7.5t-7.5 -18t7.5 -18.5t17.5 -8h540q17 0 13 -16l-127 -443l24 19h-553q-13 0 -26 9.5t-17 21.5l-215 638q-4 10 -13.5 15t-19.5 1.5t-14.5 -13.5t-1.5 -20l215 -637v0z
M394 -24q0 43 -30.5 73t-73 30t-72.5 -30t-30 -73t30 -73.5t72.5 -30.5t73 30.5t30.5 73.5v0zM239 -24q0 21 15 36t36.5 15t36.5 -15t15 -36.5t-15 -36.5t-36.5 -15t-36.5 15t-15 37v0zM934 -24q0 43 -30.5 73t-73 30t-72.5 -30t-30 -73t30 -73.5t72.5 -30.5t73 30.5
t30.5 73.5v0zM779 -24q0 21 15 36t36.5 15t36.5 -15t15 -36.5t-15 -36.5t-36.5 -15t-36.5 15t-15 37v0zM779 -24z" />
    <glyph glyph-name="0713wodehui1" unicode="&#xe61a;" 
d="M794 594q0 125 -86 213t-207.5 88t-207.5 -88t-86 -213t86 -213.5t207.5 -88.5t207.5 88.5t86 213.5v0zM258 594q0 103 71 176t171.5 73t171.5 -73t71 -176.5t-71 -176.5t-171.5 -73t-171.5 73t-71 177v0zM3 -102v-26h25h460h510h26v26q0 87 -41.5 169t-110.5 143
t-163.5 97.5t-195.5 36.5q-24 0 -49 -2q-7 0 5 -8q18 -12 19 -20q7 1 12.5 -10.5t12.5 -11.5q91 0 176 -33t147 -87t99.5 -126t37.5 -148l25 26h-510h-460l26 -26q0 104 59.5 194.5t163.5 143.5q10 5 13 15t-1.5 20t-14.5 13.5t-20 -1.5q-116 -60 -183.5 -162.5
t-67.5 -222.5v0zM3 -102z" />
    <glyph glyph-name="0610shenqingtuikuantianjiatupian" unicode="&#xe61b;" 
d="M390 421h30q0 25 17.5 43t42.5 18v31q-37 0 -63.5 -27t-26.5 -65v0zM390 421zM480 636q-87 0 -148.5 -63t-61.5 -152.5t61.5 -152.5t148.5 -63q47 0 89 20q54 26 87 77.5t34 114.5v3q0 90 -61.5 153t-148.5 63v0zM569 297q-39 -30 -89 -30q-62 0 -106 45t-44 108.5
t44 108.5t106 45t106 -45t44 -108v-4q-2 -75 -61 -120v0zM569 297zM960 572v64q0 38 -26 65t-64 27h-150v31q0 38 -26.5 65t-63.5 27h-300q-37 0 -63.5 -27t-26.5 -65v-31h-150q-37 0 -63.5 -27t-26.5 -65v-493q0 -38 26.5 -65t63.5 -27h333h146v0v0q17 1 29.5 13t12.5 29v0
q0 17 -12.5 29.5t-29.5 12.5v0v0h-146h-297q-18 0 -30.5 12.5t-12.5 30.5v431q0 18 12.5 30.5t30.5 12.5h184v72q0 18 12.5 30.5t30.5 12.5h255q17 0 29.5 -12.5t12.5 -30.5v-72h184q18 0 30.5 -12.5t12.5 -30.5v0v-192v0q1 -17 13 -28.5t29 -11.5v0q17 0 29.5 12.5
t12.5 29.5v146q0 3 -1 7v0zM960 572zM869 326v-312q0 -16 -12 -27.5t-28 -11.5h-5q-16 0 -27.5 11.5t-11.5 27.5v312q0 17 11.5 28.5t27.5 11.5h5q16 0 28 -11.5t12 -28.5v0zM869 326zM671 212h312q16 0 27.5 -11.5t11.5 -27.5v-5q0 -16 -11.5 -28t-27.5 -12h-312
q-17 0 -28.5 12t-11.5 28v5q0 16 11.5 27.5t28.5 11.5v0zM671 212z" />
    <glyph glyph-name="jianshao" unicode="&#xe61c;" 
d="M512 -128q-104 0 -199 40.5t-163.5 109t-109 163.5t-40.5 199t40.5 199t109 163.5t163.5 109t199 40.5t199 -40.5t163.5 -109t109 -163.5t40.5 -199t-40.5 -199t-109 -163.5t-163.5 -109t-199 -40.5zM512 866q-98 0 -187 -38t-154 -103t-103 -154t-38 -187t38 -187
t103 -154t154 -103t187 -38t187 38t154 103t103 154t38 187t-38 187t-103 154t-154 103t-187 38zM312 397h400v-29h-400v29z" />
    <glyph glyph-name="tianjia" unicode="&#xe61d;" 
d="M512 -128q-104 0 -199 40.5t-163.5 109t-109 163.5t-40.5 199t40.5 199t109 163.5t163.5 109t199 40.5t199 -40.5t163.5 -109t109 -163.5t40.5 -199t-40.5 -199t-109 -163.5t-163.5 -109t-199 -40.5zM512 866q-98 0 -187 -38t-154 -103t-103 -154t-38 -187t38 -187
t103 -154t154 -103t187 -38t187 38t154 103t103 154t38 187t-38 187t-103 154t-154 103t-187 38zM312 397h400v-29h-400v29zM499 584h29v-400h-29v400z" />
    <glyph glyph-name="cha" unicode="&#xe61e;" 
d="M329 588l387 -387l-21 -21l-387 387zM695 588l21 -21l-387 -387l-21 21zM512 -128q-104 0 -199 40.5t-163.5 109t-109 163.5t-40.5 199t40.5 199t109 163.5t163.5 109t199 40.5t199 -40.5t163.5 -109t109 -163.5t40.5 -199t-40.5 -199t-109 -163.5t-163.5 -109
t-199 -40.5zM512 866q-98 0 -187 -38t-154 -103t-103 -154t-38 -187t38 -187t103 -154t154 -103t187 -38t187 38t154 103t103 154t38 187t-38 187t-103 154t-154 103t-187 38z" />
    <glyph glyph-name="033erweima" unicode="&#xe605;" horiz-adv-x="1026" 
d="M0 425v471h468v-471h-468v0zM384 811h-299v-301h299v301v0zM384 811zM1 345h468v-473h-468v473v0zM385 259h-299v-302h299v302v0zM385 259zM557 425v471h468v-471h-468v0zM641 811v-301h299v301h-299v0zM641 811zM641 -128h-84v473h255v-14v-189q0 -8 3 -10.5t10 -2.5
h104q1 0 12 1v214h85v-299h-298v215h-82q-3 0 -5 -6v-10v-357v-15v0zM641 -128zM728 -128v127h127v-127h-127v0zM728 -128zM1026 -128h-126v127h126v-127v0zM1026 -128zM171 598v126h127v-38v-80q0 -10 -8 -10q-4 0 -115 1l-4 1v0zM171 598zM172 45v128h29h87q11 0 11 -8
v-120h-127v0zM172 45zM728 724h126v-128h-23h-93.5t-10.5 9v114l1 5v0zM728 724z" />
    <glyph glyph-name="051dingdantihuandizhisousuo" unicode="&#xe612;" 
d="M186 448.5q0 108.5 78 185.5t188.5 77t189 -77t78.5 -185.5t-78.5 -185.5t-189 -77t-188.5 77t-78 185.5zM922 896h-820q-42 0 -72 -30t-30 -72v-820q0 -42 30 -72t72 -30h820q42 0 72 30t30 72v820q0 42 -30 72t-72 30zM880 16q-7 -7 -17 -7t-17 7l-195 191
q-87 -69 -198 -69q-131 0 -223.5 91t-92.5 219.5t92.5 219.5t223 91t223 -91t92.5 -220q0 -119 -82 -208l194 -190q7 -7 7 -17t-7 -17z" />
    <glyph glyph-name="06dingdan01daifukuan" unicode="&#xe613;" 
d="M639 488q20 0 34 14t14 34t-14 34t-34 14t-34 -14t-14 -34t14 -34t34 -14zM638.5 563q11.5 0 19.5 -8t8 -19.5t-8 -19.5t-19.5 -8t-19.5 8t-8 19.5t8 19.5t19.5 8zM1024 793q0 43 -30 73t-72 30h-820q-42 0 -72 -30t-30 -73v-819q0 -42 30 -72t72 -30h820q42 0 72 30
t30 72v819zM781 188.5q4 13.5 6 25.5q10 -5 20 -6q-7 -15 -14 -37h67q-4 -14 -7 -25q-3 -9 -6 -21l-19 2q6 15 9 29h-48q-8 -18 -19 -34q-9 6 -17 9q12 14 18 29t10 28.5zM640 30q7 8 13.5 18t11.5 22q10 -5 17 -9q-4 -8 -11 -19q-6 -11 -16 -23q-4 7 -15 11zM733 43
q-4 8 -10 16l15 9l9 -13.5t10 -17.5q-8 -5 -16 -11zM729 79h-16v-51q0 -14 -7 -17.5t-25 -7.5q-1 10 -9 21q19 -1 21 1.5t2 7.5v46h-21q-13 0 -29 -2v17q17 -1 30 -1h54q15 0 29 1v-17q-14 2 -29 2zM654 110v16q15 -1 28 -1h40q12 0 28 1v-16q-15 1 -28 1h-40q-13 0 -28 -1z
M761 177q-17 2 -32 2h-16v-21h10q12 0 28 1v-16q-16 1 -28 1h-39q-12 0 -31 -2v17q18 -1 31 -1h12v21h-19q-12 0 -30 -2v17q18 -1 29 -1h20q0 13 -1 25h19q-1 -11 -1 -25h16q15 0 32 1v-17zM754 454h-181q-17 0 -28.5 12t-11.5 29v82q0 16 11.5 28t28.5 12h181v-163z
M270 677q0 42 29.5 71.5t71.5 29.5h282q42 0 71.5 -29.5t29.5 -71.5v-40h-181q-25 0 -42.5 -17.5t-17.5 -42.5v-82q0 -25 17.5 -43t42.5 -18h181v-40q0 -41 -29.5 -71t-71.5 -30h-282q-42 0 -71.5 30t-29.5 71v283zM495 114q7 4 16 10q15 -27 22 -44q-8 -4 -19 -10
q-7 23 -19 44zM252 64q10 5 17 12q14 -19 23 -32q-8 -5 -17 -12q-11 19 -23 32zM459 3h-19q1 15 1 44v89q-15 -25 -26 -36q-7 10 -13 13q15 15 31 44t25 63q13 -8 21 -11q-3 -3 -9 -16q-5 -11 -12 -25v-120q0 -28 1 -45zM246 185q19 -1 45 -1q0 24 -1 36h20q-1 -12 -1 -36
h21q18 1 29 2v-18q-10 1 -29 1h-21v-31h41q19 0 29 1v-16q-20 1 -36 1v-27q19 0 33 1v-17q-14 1 -33 1v-49q0 -17 -8 -20.5t-30 -8.5q-1 11 -8 23q16 -1 22 0.5t6 12.5v42h-57q-14 0 -34 -1v17q20 -1 34 -1h57v27h-50q-19 0 -39 -2v17q20 -1 39 -1h16v31q-23 0 -45 -1v17z
M218 220q8 -7 18 -12q-7 -6 -20 -23t-37 -40q-4 7 -13 13q40 36 52 62zM198 2q1 23 1 38v62q-11 -12 -24 -28q-7 7 -13 14q16 13 34.5 37t26.5 41q7 -6 17 -14q-13 -13 -23 -29v-82q0 -16 1 -39h-20v0zM530 24q23 -1 27.5 1.5t4.5 12.5v106h-57q-15 0 -31 -1v18q16 -1 32 -1
h56v28q0 12 -1 23h22q-2 -12 -2 -25v-26h11q16 0 25 1v-18q-8 1 -25 1h-11v-112q1 -17 -11.5 -23t-30.5 -7q-3 12 -9 22zM746 17q11 8 20 18t14.5 21.5t8 23.5t2.5 23q1 12 1 26q13 -3 21 -4q-2 -7 -3.5 -17t4.5 -29t20 -35.5t28 -22.5q-12 -9 -15 -16q-20 17 -29.5 31
t-14.5 31q-6 -18 -15 -33t-30 -33q-7 12 -12 16z" />
    <glyph glyph-name="06dingdan02daishouhuo" unicode="&#xe614;" horiz-adv-x="1025" 
d="M391 496h242v-121h-242v121zM552 76q16 29 20 84h-47q-6 -13 -10 -20l16 2q2 -17 8.5 -35t12.5 -31zM1024 793q0 42 -30 72t-72 30h-819q-42 0 -72 -30t-30 -72v-819q0 -42 30 -72t72 -30h819q42 0 72 30t30 72v819zM779 214q-1 -12 -1 -36q4 2 21 9.5t32 19.5l12 -18
q-10 -3 -26.5 -11t-38.5 -17v-16q0 -8 13 -8h31q11 0 13.5 5t2.5 18q11 -7 21 -10q-6 -18 -11.5 -23t-12.5 -5h-55q-22 0 -22 19v15q-19 -7 -31 -11q-6 10 -9 16q15 3 40 10q0 31 -1 43h22v0zM824 47h-21v44h-100v-43h-20q1 15 1 29q0 15 -1 30h141v-29v-31zM253 64
q9 5 16 12q14 -19 24 -32q-9 -5 -18 -12q-10 19 -22 32zM476 4h-19q1 20 1 34v37q-43 -11 -48 -16l-10 16q8 5 8 17v66v26h20q-2 -12 -2 -31v-70l32 6v101q0 13 -1 27h19q-1 -11 -1 -26v-155q0 -13 1 -32zM328 294q-8 0 -13 5t-5 12v247q0 7 5 12.5t13 5.5h369q7 0 12 -5.5
t5 -12.5v-247q0 -7 -5 -12t-12 -5h-369v0zM680 182.5q18 19.5 27 35.5q10 -10 21 -12q-7 -6 -21 -21q0 -52 1 -69h-22q1 17 1 51q-8 -7 -15.5 -14.5l-14.5 -14.5q-9 8 -14 13q19 12 37 31.5zM270 760q0 8 5 13t13 5h449q7 0 12 -5t5 -13v-126q0 -7 -5 -12t-12 -5h-449
q-8 0 -13 5t-5 12v126zM246 185q20 -1 46 -1q0 24 -1 35h20q-1 -11 -1 -35h20q19 1 29 2v-18q-9 1 -29 1h-20v-31h41q18 0 29 1v-17q-20 1 -37 1v-26q20 0 34 1v-17h-34v-48q0 -17 -8 -20.5t-29 -8.5q-2 11 -9 22q16 -1 22 1t6 12v42h-56h-34v17q19 -1 34 -1h56v26h-50
q-19 0 -38 -1v17q19 -1 38 -1h17v31q-23 0 -46 -1v17v0zM218 220q9 -7 19 -13q-8 -5 -21 -22t-36 -40q-5 6 -13 13q39 36 51 62zM199 2q1 23 1 38v62q-12 -12 -25 -28q-6 7 -13 14q17 13 35 37t27 41q6 -6 17 -14q-14 -13 -24 -30v-81q0 -17 1 -39h-19v0zM477 16
q37 14 62 43q-7 15 -13 32t-13 45q-10 -20 -16 -27q-6 5 -15 10q13 18 26.5 48.5t18.5 52.5q11 -4 23 -7q-4 -7 -18 -37h52q19 0 36 1v-18q-17 1 -31 1q-2 -37 -9.5 -61.5t-17.5 -40.5q12 -15 26.5 -23.5t34.5 -12.5q-11 -8 -15 -18q-19 7 -32 16.5t-25 23.5
q-18 -19 -56 -43q-4 8 -18 15zM648 21q27 1 45 4.5t27.5 11t14 17t6.5 23.5q11 -2 22 -3q-5 -14 -9 -24t-14.5 -20t-29 -17.5t-50.5 -13.5q-3 11 -12 22zM804 17.5q-18 7.5 -40 16.5q5 9 9 18q19 -9 37 -16q15 -7 40 -18q-7 -8 -12 -19q-16 11 -34 18.5z" />
    <glyph glyph-name="06dingdan03daiziti" unicode="&#xe615;" 
d="M558 736h-94q-8 0 -13.5 -5.5t-5.5 -13.5v-19h132v19q0 8 -5.5 13.5t-13.5 5.5zM449 76h125v-34h-125v34zM449 121h125v-30h-125v30zM922 896h-820q-42 0 -72 -30t-30 -72v-820q0 -42 30 -72t72 -30h820q42 0 72 30t30 72v820q0 42 -30 72t-72 30zM839 130h-106
q1 19 1 40q0 22 -1 42h106q-1 -15 -1 -42q0 -26 1 -40zM652 698h75q16 0 27 -11.5t11 -27.5v-325q0 -17 -11.5 -29t-26.5 -12h-75v405zM258 659q0 16 11 27.5t26 11.5h75v-405h-75q-15 0 -26 12t-11 29v325zM218 220q8 -7 18 -12q-7 -6 -20 -23t-37 -40q-4 7 -13 13
q40 37 52 62zM198 2q1 23 1 39v61q-11 -12 -24 -28q-7 8 -13 14q16 13 34.5 37t26.5 42q7 -7 17 -14q-13 -14 -23 -30v-82q0 -16 1 -39h-20v0zM275 32q-11 19 -23 32q10 5 17 12q14 -19 23 -32q-8 -4 -17 -12zM379 123q-20 1 -36 1v-27q19 0 33 1v-17q-14 1 -33 1v-49
q0 -17 -8 -20.5t-30 -8.5q-2 11 -8 23q16 -1 22 0.5t6 12.5v42h-57q-14 0 -34 -1v17q20 -1 34 -1h57v27h-50q-19 0 -39 -2v17h39h16v30q-23 0 -45 -1v17q19 -1 45 -1q0 24 -1 36h20q-1 -12 -1 -36h21q18 1 29 2v-18q-10 1 -29 1h-21v-30h41h29v-16zM593 5h-19v22h-125v-22
h-19q1 18 1 33v106q0 16 -1 38h52q4 26 4 38q12 -4 25 -6q-6 -8 -11 -32h93q-1 -21 -1 -39v-104q0 -18 1 -34zM614 293h-206v443q0 16 11 27.5t26 11.5h132q15 0 26 -11.5t11 -27.5v-443zM690 25q-2 -13 -9.5 -16.5t-26.5 -5.5q0 11 -5 22q14 -1 18.5 0t4.5 8v54
q-11 -5 -26 -14q-4 12 -8 19q16 4 34 12v49q-17 0 -29 -1v16q12 -1 29 -1v25q0 15 -1 27h20q-1 -10 -1 -26v-26q14 0 28 1v-16q-14 1 -28 1v-42q12 6 21 12q0 -8 1 -17q-8 -5 -22 -12v-69zM852 8h-48q-21 1 -36 7.5t-28 18.5q-8 -18 -28 -34q-6 8 -16 13q20 12 29 33t9 41
q11 -4 20 -5q-2 -6 -7 -30q12 -16 30 -21v67h-21q-19 0 -38 -1v17q18 -1 39 -1h69q16 0 31 1v-17q-14 1 -30 1h-33v-26h14q17 0 32 1v-17q-15 1 -31 1h-15v-30q11 -1 28.5 -1t37.5 2q-4 -6 -8 -20zM751 196h71v-16h-71v16zM449 167h125v-31h-125v31zM751 164h71v-19h-71v19z
" />
    <glyph glyph-name="06dingdan04yiwancheng" unicode="&#xe61f;" horiz-adv-x="1025" 
d="M1024 793q0 43 -30 73t-73 30h-819q-42 0 -72 -30t-30 -73v-819q0 -42 30 -72t72 -30h819q43 0 73 30t30 72v819zM807 220q19 -15 33 -30q-8 -7 -15 -13q-11 15 -30 31q7 5 12 12zM733 704q-76 -71 -140 -164.5t-89 -156.5l-165 171l43 34l95 -76q107 129 246 216z
M289 630q18 44 51.5 77.5t77.5 51.5q45 19 94 19q39 0 77 -12v-41q-37 15 -77 15q-85 0 -144.5 -60t-59.5 -144t59.5 -144t144 -60t144.5 60t60 144q0 17 -3 33h39q2 -16 2 -33q0 -49 -19 -94q-19 -44 -52.5 -77.5t-76.5 -51.5q-45 -19 -94 -19t-94 19q-44 18 -77.5 51.5
t-51.5 77.5q-19 45 -19 94t19 94zM611 148h-20v29h-162v-29h-21q1 12 1 23t-1 22h92q-3 6 -12 18q7 4 17 10q12 -15 19 -28h87q-2 -13 -2 -25q0 -10 2 -20zM570 152v-19q-16 1 -33 1h-58q-18 0 -35 -1v19q17 -1 35 -1h58q18 0 33 1zM177 202q26 -1 47 -1h125q-1 -16 -1 -33
v-34q0 -20 1 -38h-20v14h-124v-63q-1 -22 24 -21h92q16 -1 22 4.5t9 31.5q10 -7 23 -10q-5 -25 -12 -34t-20 -10h-125q-34 -1 -32 29v80q0 9 -1 35h22q-1 -13 -1 -27h123v59h-104q-21 0 -48 -1v19zM400 15q26 8 40 17.5t20 22t9 38.5h-29q-21 0 -36 -1v18q16 -1 36 -1h142
q18 0 34 1v-18q-16 1 -34 1h-40v-59q0 -8 7 -8.5t19 -0.5q13 0 18.5 2.5t7.5 22.5q13 -8 23 -10q-6 -18 -13 -24.5t-15 -7.5h-47q-19 1 -19 18v67h-34q-1 -23 -8.5 -41.5t-26 -32.5t-37.5 -20q-7 9 -17 16zM826 4.5q-11 4.5 -21 16t-16 25.5q-23 -24 -57 -46q-5 9 -14 15
q18 9 35.5 23t25.5 26q-6 17 -11 43t-6 51h-80v-33h61q-2 -16 -3 -34l-3 -37q-1 -18 -9.5 -22t-30.5 -5q-1 8 -7 20q23 -1 27 3t4 21l2 38h-41q0 -37 -5.5 -61t-20.5 -45q-10 8 -19 10q13 15 17.5 28.5t7 29.5t2.5 45q1 29 0 58h97q-1 27 -2 46q11 -1 21 -2q-2 -12 -1 -44
h27q20 0 43 1v-18q-24 1 -43 1h-26q1 -35 12 -77q18 27 28 62q10 -7 22 -13q-8 -8 -17 -27.5t-24 -41.5q8 -17 18 -26.5t13.5 -8.5t7.5 32q9 -7 20 -11q-7 -38 -15 -42.5t-19 0z" />
    <glyph glyph-name="0401saoyisao" unicode="&#xe620;" 
d="M31 537q-11 0 -19 8.5t-8 19.5v222q0 42 30 72t72 30h222q11 0 19 -8t8 -19.5t-8 -19.5t-19 -8h-222q-19 0 -33 -14t-14 -33v-222q0 -11 -8 -19.5t-20 -8.5v0zM31 537zM974 537q-12 0 -20 8.5t-8 19.5v222q0 19 -14 33t-33 14h-222q-11 0 -19 8t-8 19.5t8 19.5t19 8h222
q42 0 72 -30t30 -72v-222q0 -11 -8 -19.5t-19 -8.5v0zM974 537zM328 -118h-222q-42 0 -72 30t-30 73v221q0 12 8 20t19.5 8t19.5 -8t8 -20v-221q0 -20 14 -33.5t33 -13.5h222q11 0 19 -8.5t8 -19.5t-8 -19.5t-19 -8.5v0zM328 -118zM899 -118h-222q-11 0 -19 8.5t-8 19.5
t8 19.5t19 8.5h222q19 0 33 13.5t14 33.5v221q0 12 8 20t19.5 8t19.5 -8t8 -20v-221q0 -43 -30 -73t-72 -30v0zM899 -118zM974 358h-943q-11 0 -19 8t-8 19.5t8 19.5t19 8h943q11 0 19 -8t8 -19.5t-8 -19.5t-19 -8v0zM974 358z" />
    <glyph glyph-name="052zhaorendaifu" unicode="&#xe621;" 
d="M696 427q0 -50 -22 -100.5t-62 -84.5t-84 -34t-84 34t-62 84.5t-22 100.5q0 75 49 127.5t119 52.5t119 -52.5t49 -127.5v0zM696 427zM833 -3q0 -41 -42 -68.5t-108.5 -40t-153.5 -12.5t-153.5 12.5t-108.5 40t-42 68.5q0 31 24.5 65t64.5 62t97 46t117.5 18t118 -18
t97.5 -46t64.5 -62t24.5 -65v0zM833 -3zM624 179v-8q0 -41 -29 -70t-69.5 -29t-69.5 29t-29 70v1q27 17 27 45q0 16 -10 29q29 44 81 44q41 0 70 -29q9 -10 15 -20q-5 -11 -5 -23q0 -23 19 -39v0zM624 179zM529 883q-94 0 -180 -36.5t-148.5 -99t-99.5 -148.5t-37 -180
q0 -82 28 -158l-40 -24l-5 -2q-5 -5 -5 -12t5 -11l6 -4v0l154 -88v0v0q1 -1 3 -1v0v-1v0h1v0q2 -1 5 -1q13 0 15 13v0v1v0v1v0v0h1q0 1 -0.5 1h-0.5v1v0v0v0v178v0v7v0q-3 12 -15 12q-2 0 -5 -1l-5 -3v0l-45 -26q-19 57 -19 118q0 105 52 194t141 141t194 52t194 -52
t141 -141t52 -194q0 -112 -59 -205q-3 -5 -6 -9q-4 -8 -4 -17q0 -16 12 -27.5t28 -11.5q17 0 28 12q3 4 8 12q70 113 70 246q0 94 -36.5 180t-99 148.5t-148.5 99t-180 36.5v0zM529 883z" />
    <glyph glyph-name="biaoqing" unicode="&#xe625;" horiz-adv-x="1025" 
d="M512.5 -128q-103.5 0 -198.5 41t-163.5 109.5t-109 163t-40.5 198.5t40.5 199t109 163.5t163.5 109t198.5 40.5t198.5 -40.5t163.5 -109t109 -163.5t40.5 -199t-40.5 -198.5t-109 -163t-163.5 -109.5t-198.5 -41zM512.5 879q-100.5 0 -192 -39.5t-158 -105.5
t-105.5 -157.5t-39 -192t39 -192.5t105.5 -158t158 -105.5t192 -39.5t192 39.5t158 105.5t105.5 158t39 192.5t-39 192t-105.5 157.5t-158 105.5t-192 39.5zM368 521q0 23 -16 38.5t-38.5 15.5t-38.5 -15.5t-16 -38.5t16 -39t38.5 -16t38.5 16t16 39zM288 161
q108 -49 223 -49t223 49q13 7 13 23q0 12 -7.5 19.5t-18.5 7.5q-5 0 -10 -2v0q-95 -43 -201 -43q-109 0 -203 44h-1q-5 1 -6 1q-12 0 -19.5 -7.5t-7.5 -18.5q0 -15 15 -24v0zM706.5 575q-22.5 0 -38.5 -16t-16 -38.5t16 -38.5t38.5 -16t38.5 16t16 38.5t-16 38.5t-38.5 16z
" />
    <glyph glyph-name="tianjia1" unicode="&#xe626;" horiz-adv-x="1025" 
d="M513 -128q-104 0 -199 40.5t-163.5 109t-109 163.5t-40.5 199t40.5 199t109 163.5t163.5 109t199 40.5t198.5 -40.5t163 -109t109.5 -163.5t41 -199t-41 -199t-109.5 -163.5t-163 -109t-198.5 -40.5zM512.5 879q-100.5 0 -192 -39.5t-158 -105.5t-105.5 -157.5
t-39 -192.5t39 -192.5t105.5 -157.5t158 -105.5t192 -39.5t192 39.5t158 105.5t106 157.5t39.5 192.5t-39.5 192.5t-106 157.5t-158 105.5t-192 39.5zM814 411h-277v276q0 12 -8 20t-20 8t-20 -8t-8 -20v-276h-277q-11 0 -19.5 -8.5t-8.5 -20t8.5 -19.5t19.5 -8h277v-277
q0 -12 8 -20t20 -8t20 8t8 20v277h277q11 0 19.5 8t8.5 19.5t-8.5 20t-19.5 8.5v0z" />
    <glyph glyph-name="yuyin" unicode="&#xe627;" 
d="M347 247v0v0q68 54 68 135.5t-68 136.5q-10 8 -23 7.5t-22 -9.5q-8 -8 -8 -19q0 -12 10 -21q47 -38 47 -94.5t-46 -93.5q-10 -8 -10.5 -20t8 -20.5t21.5 -9t23 7.5zM467 154v0v0q52 46 79 105t27 124t-27.5 124t-78.5 105q-9 9 -22 9t-22.5 -8.5t-9.5 -20t9 -20.5
q88 -78 88 -189t-88 -189q-9 -9 -9 -20.5t9.5 -20t22.5 -8.5t22 9zM586 60v0v0q71 65 108.5 148.5t37.5 174.5t-37.5 174t-108.5 149q-9 8 -22 8.5t-23 -7.5q-9 -9 -9 -21q0 -11 9 -19q61 -58 94 -131t33 -153t-33 -153t-94 -131q-9 -8 -9 -20t9.5 -20t22.5 -7.5t22 8.5z
M586 60zM513 -128q-104 0 -198.5 40.5t-163 109t-109 163t-40.5 198.5t40.5 198.5t109 163t163 109t198.5 40.5t198.5 -40.5t163 -109t109 -163t40.5 -198.5t-40.5 -198.5t-109 -163t-163 -109t-198.5 -40.5zM513 877q-100 0 -191.5 -39.5t-158 -105.5t-105.5 -157.5
t-39 -191.5t39 -191.5t105.5 -158t158 -105.5t191.5 -39t191.5 39t157.5 105.5t105.5 158t39.5 191.5t-39.5 191.5t-105.5 157.5t-157.5 105.5t-191.5 39.5z" />
    <glyph glyph-name="moye" unicode="&#xe622;" 
d="M45 883q-12 -12 -12 -29.5t13 -30.5l440 -436l-439 -442q-12 -13 -12 -30.5t12.5 -30t30.5 -12.5t30 13l466 470l0.5 1l0.5 1h1v1q12 12 12 29q0 18 -12 31l-470 466q-13 12 -30.5 12t-30.5 -13v0v0zM45 883zM446 883q-12 -12 -12 -29.5t12 -30.5l440 -436l-438 -442
q-12 -13 -12 -30.5t12.5 -30t30 -12.5t30.5 13l465 470q1 0 1.5 1l0.5 1h0.5t0.5 1q12 12 12 29q0 18 -13 31l-470 466q-12 12 -30 12t-30 -13v0v0zM446 883z" />
    <glyph glyph-name="shangyiye" unicode="&#xe623;" 
d="M705 883v0v0q-12 13 -30 13t-30 -12l-470 -466q-13 -13 -13 -30q0 -18 12 -30q0 -1 0.5 -1h0.5l0.5 -1l0.5 -1l466 -470q13 -13 30.5 -13t30 12.5t12.5 30t-12 30.5l-439 442l441 436q12 13 12 30.5t-12 29.5zM705 883z" />
    <glyph glyph-name="shouye" unicode="&#xe624;" 
d="M977 883v0v0q-13 13 -30.5 13t-30.5 -12l-470 -466q-12 -13 -12 -30q0 -18 12 -30v-1h1l0.5 -1l0.5 -1l466 -470q12 -13 30 -13t30.5 12.5t12.5 30t-13 30.5l-438 442l440 436q13 13 13 30.5t-12 29.5zM977 883zM576 883v0v0q-12 13 -30 13t-30 -12l-470 -466
q-13 -13 -13 -30q0 -18 12 -30q0 -1 0.5 -1h0.5l0.5 -1l0.5 -1l466 -470q13 -13 30.5 -13t30 12.5t12.5 30t-12 30.5l-438 442l440 436q12 13 12 30.5t-12 29.5zM576 883z" />
    <glyph glyph-name="liaotiankefu" unicode="&#xe628;" horiz-adv-x="1037" 
d="M963 719h-74v-73h74v-474h-74v0q-23 3 -34 -15l-63 -109l-61 109q-8 15 -29 15v0h-184v0h-9q-15 0 -26 -10.5t-11 -25.5t11 -26t26 -11h9h65h91l86 -152q6 -12 24 -14q26 -6 39 14l86 153h53q31 0 52.5 21.5t21.5 51.5v474q1 29 -20.5 50.5t-52.5 21.5v0zM963 719z
M778 209q31 0 52.5 21.5t21.5 51.5v474q0 30 -21.5 51.5t-52.5 21.5h-704q-31 0 -52.5 -21.5t-21.5 -51.5v-474q0 -29 21 -50t51 -22h49l116 -155q10 -14 30 -12q21 -2 30 13l99 153h382v0zM342 267l-77 -120l-92 122q-9 12 -25 12v0h-74v474h704v-474h-407v0q-21 1 -29 -14
v0zM342 267zM185 518q0 -23 16 -39t39.5 -16t39.5 16t16 39t-16 39.5t-39.5 16.5t-39.5 -16.5t-16 -39.5v0zM185 518zM370 518q0 -23 16 -39t39 -16t39.5 16t16.5 39t-16.5 39.5t-39.5 16.5t-39 -16.5t-16 -39.5v0zM370 518zM556 518q0 -23 16 -39t39 -16t39 16t16 39
t-16 39.5t-39 16.5t-39 -17q-16 -14 -16 -39v0zM556 518z" />
    <glyph glyph-name="fasongchenggong" unicode="&#xe629;" horiz-adv-x="1025" 
d="M511 896q-105 0 -199.5 -40.5t-163 -109t-108.5 -163.5t-40 -199t40.5 -199t109 -163.5t163.5 -109t199 -40.5t199 40.5t163.5 109t109 163.5t40.5 199t-40.5 199t-109 163.5t-163.5 109t-200 40.5v0v0v0zM838 522q-312 -330 -352 -370q-13 -13 -29 -16.5t-28.5 0.5
t-20.5 12l-223 204q-15 17 -15 39.5t15.5 39t37 16.5t36.5 -17l185 -165l320 335v0q15 16 36.5 16t37 -16t15.5 -39t-15 -39v0v0v0z" />
    <glyph glyph-name="fasongshibai" unicode="&#xe62a;" 
d="M512 896q-139 0 -257 -68.5t-186.5 -186.5t-68.5 -257t68.5 -257t186.5 -186.5t257 -68.5t257 68.5t186.5 186.5t68.5 257t-68.5 257t-186.5 186.5t-257 68.5v0zM512 35q-29 0 -49.5 20.5t-20.5 49.5t20.5 49.5t49.5 20.5t49.5 -20.5t20.5 -49.5t-20.5 -49.5t-49.5 -20.5
v0zM582 314q0 -29 -20.5 -49.5t-49.5 -20.5t-49.5 20.5t-20.5 49.5v326q0 29 20.5 49.5t49.5 20.5t49.5 -20.5t20.5 -49.5v-326v0z" />
    <glyph glyph-name="quxiaotubiao" unicode="&#xe62b;" 
d="M512 753q-89 0 -152 -63t-63 -152.5t63 -153t152 -63.5t152 63.5t63 153t-63 152.5t-152 63zM383 603h42v-43h-42v43zM578 472h-88l1 -66l-128 110h215v-44zM644 470h-43v44h43v-44zM449 560v44h88v65l125 -109h-213zM650 184h64v-18h-64v18zM650 153h64v-18h-64v18z
M356 94h73v-21h-73v21zM356 129h73v-21h-73v21zM230 170h-34q2 -31 4 -46.5t10 -35.5q13 25 16 47t4 35zM922 896h-820q-42 0 -72 -30t-30 -72v-820q0 -42 30 -72t72 -30h820q42 0 72 30t30 72v820q0 42 -30 72t-72 30zM882.5 174q3.5 11 5.5 21q8 -4 17 -5q-6 -13 -12 -30
h55q-3 -12 -6 -21q-2 -8 -5 -17l-15 1q4 13 7 24h-40q-6 -14 -15 -28q-8 5 -14 8q9 11 14 23.5t8.5 23.5zM772 178q15 -1 24 -1h17q0 11 -1 21h16q-1 -9 -1 -21h13q12 0 26 1v-14q-14 2 -26 2h-13v-17h8q10 0 24 1v-13h-24h-32q-10 0 -25 -1v14q14 -1 25 -1h10v17h-16
q-10 0 -25 -2v14zM857 123v-14q-12 1 -23 1h-33q-10 0 -23 -1v14q13 -1 23 -1h33q10 0 23 1zM145 17v41q-18 -4 -33.5 -9.5t-26.5 -10.5l-6 18l17 3v118h-15v13q10 -1 27 -1h41q13 0 23 1v-13h-13v-104l20 6v-13q-10 -3 -20 -5q0 -30 1 -44h-15zM246 25q-17 11 -35 36
q-14 -22 -32 -38q-4 6 -14 12q10 6 18.5 15t18.5 24q-12 22 -15.5 44t-4.5 52h-7v13q16 -1 28 -1h43q-3 -38 -8.5 -62.5t-18.5 -45.5q7 -11 17 -20t23 -16q-8 -6 -13 -13zM308 59q-7 -19 -12 -39q-10 8 -22 11q8 8 15.5 24.5t13.5 40.5q8 -6 16 -11q-5 -7 -11 -26zM273 131
q3 5 8 12q19 -9 35 -20q-6 -6 -11 -13q-15 11 -32 21zM310 156q-13 15 -28 28q5 2 12 10q14 -10 29 -26q-8 -6 -13 -12zM445 110v-74q0 -6 -5 -10t-22 -7q0 7 -9 17q12 0 16 0.5t4 5.5v18h-73v-40h-16v38v53v31h44q0 45 -1 58h18v-58h45q-1 -20 -1 -32zM331 184q7 3 15 8
q10 -12 21 -32q-9 -3 -15 -8q-8 16 -21 32zM443 170q-8 -10 -13 -19l-14 8q11 12 22 34q9 -6 17 -10q-4 -3 -12 -13zM473 33l-8 5l82 146l8 -5zM746 26q-28 -3 -48 -3.5t-45 3t-37 10t-19.5 1t-17.5 -16.5q-5 9 -11 14q14 12 25 19v63q-9 0 -21 -1v16q12 -1 22 -1h16
q-2 -13 -2 -24v-49q25 -19 71.5 -18.5t71.5 6.5q-4 -9 -5 -19zM584 193q8 1 16 4q10 -26 14 -38q-9 -1 -17 -6q-2 14 -13 40zM634 197h95q-1 -15 -1 -38t1 -38h-79v-52q16 8 27 14q1 -7 4 -16q-12 -4 -43 -21l-10 14q7 6 7 16v91q0 15 -1 30zM743 63q-9 -6 -13 -14
q-15 13 -34 28q-19 14 -35 26q6 4 12 10q21 -14 27 -20q11 9 23 24q7 -5 17 -10q-22 -14 -29 -21q25 -18 32 -23zM734 443q-18 -43 -51.5 -76.5t-76.5 -52.5q-45 -19 -94 -19t-94 19q-43 19 -76.5 52.5t-51.5 76.5q-19 45 -19 94t19 94q18 44 51.5 77.5t76.5 51.5
q45 19 94 19t94 -19q43 -18 76.5 -51.5t51.5 -77.5q19 -45 19 -94t-19 -94zM779 34q-4 5 -12 9q5 6 10.5 14.5t9.5 18.5l14 -7q-3 -7 -8.5 -16t-13.5 -19zM827 42q0 -12 -6 -15t-20 -6q-2 8 -8 17q15 -1 17 1.5t2 6.5v37h-17q-11 0 -24 -1v14q13 -1 24 -1h45q12 0 24 1v-14
q-12 1 -24 1h-13v-41zM843 54q-3 6 -8 13q5 3 13 8q3 -5 7 -11.5t8 -14.5q-7 -4 -13 -9zM937 22q-16 14 -23.5 25.5t-12.5 25.5q-5 -14 -12.5 -26.5t-24.5 -27.5q-6 10 -10 13q9 7 16.5 15.5t12 18t6.5 19t2.5 19t0.5 21.5q11 -2 17 -3q-1 -6 -2 -14t3.5 -24t16 -29.5
t22.5 -18.5q-9 -8 -12 -14zM110 177h35v-32h-35v32zM110 133h35v-27h-35v27zM110 62q18 4 35 7v25h-35v-32z" />
    <glyph glyph-name="yinlianqia" unicode="&#xe62c;" horiz-adv-x="1025" 
d="M923 820h-820q-42 0 -72 -29.5t-30 -71.5v-84v-125v-313q0 -42 30 -72t72 -30h393q9 -86 74 -145t152 -59q88 0 153 59.5t74 146.5q33 7 54 34.5t21 65.5v313v125v84q0 42 -29.5 71.5t-71.5 29.5zM103 770h820q21 0 36 -15t15 -36v-59h-923v59q0 21 15.5 36t36.5 15z
M974 535h-923v75h923v-75zM722.5 -59q-73.5 0 -125.5 52t-52 125.5t52 125.5t125.5 52t125.5 -52t52 -125.5t-52 -125.5t-125.5 -52zM948 149q-12 84 -76 140.5t-150 56.5q-87 0 -151.5 -58t-74.5 -143h-393q-21 0 -36.5 15t-15.5 37v288h923v-288q0 -36 -26 -48zM221 263
h-87q-10 0 -17.5 -7.5t-7.5 -18t7.5 -17.5t17.5 -7h87q10 0 17.5 7t7.5 17.5t-7.5 18t-17.5 7.5zM434 263h-108q-10 0 -17.5 -7.5t-7.5 -18t7.5 -17.5t17.5 -7h108q10 0 17.5 7t7.5 17.5t-7.5 18t-17.5 7.5zM723 144h-0.5h-0.5q-38 0 -46 15q-2 5 1 9q11 17 49 13
q15 -2 48 -13l3 -1q10 -3 19.5 1.5t12.5 14.5t-1.5 19t-14.5 12l-3 2q-29 9 -43 12v29q0 10 -7 17.5t-17.5 7.5t-18 -7.5t-7.5 -17.5v-27q-42 -5 -61 -34q-20 -29 -4 -60q22 -42 90 -42h1q37 0 45 -16q3 -5 -1 -10q-11 -16 -48 -12q-14 2 -47 13l-4 1q-10 4 -19 -1
t-12.5 -14.5t1.5 -19t14 -12.5l4 -1q27 -10 41 -13v-29q0 -10 7.5 -17.5t18 -7.5t17.5 7.5t7 17.5v27q43 5 62 33q20 30 3 61q-22 43 -89 43z" />
    <glyph glyph-name="chuzhiqia" unicode="&#xe62d;" horiz-adv-x="1025" 
d="M547 391q-57 0 -98 -41t-41 -98q0 -58 40.5 -99t97.5 -41h1q58 0 98.5 40.5t41.5 98.5q0 57 -40.5 98t-99.5 42zM547 182v-35v35q-29 0 -49.5 20.5t-19.5 49.5q0 28 20.5 48.5t49.5 20.5t49 -20.5t20 -49.5t-20.5 -49t-49.5 -20zM792 391h-1q-57 0 -98 -41l49 -49
q22 21 50 20q28 0 48.5 -20.5t20.5 -49.5t-21 -49q-20 -20 -49 -20v0q-29 0 -49 20l-50 -49q41 -41 98 -41h1q57 0 98 40q41 41 41.5 98.5t-40 98.5t-98.5 42zM94 583h836v-47h-836v47zM920 750h-816q-43 0 -73.5 -30.5t-30.5 -73.5v-519q0 -43 30.5 -73t73.5 -30h816
q43 0 73.5 30t30.5 73v519q0 43 -30.5 73.5t-73.5 30.5zM969 127q0 -20 -14 -34.5t-35 -14.5h-816q-20 0 -34.5 14.5t-14.5 34.5v519q0 20 14.5 34.5t34.5 14.5h816q21 0 35 -14.5t14 -34.5v-519z" />
    <glyph glyph-name="hujiaokefu" unicode="&#xe62e;" 
d="M723 -128q-53 0 -91 10q-111 28 -214 86t-183 137q-80 83 -138 185t-84 212q-30 116 7.5 211t106.5 116q7 2 25 2q103 0 213 -197q12 -23 16.5 -40t-0.5 -34t-11.5 -28t-22.5 -33q-2 -2 -17.5 -25t-26.5 -39q-10 -16 -1.5 -40t19.5 -38l3 -3q33 -52 70 -88
q15 -16 36.5 -33.5t35.5 -27t16 -9.5l2 -3q35 -23 60 -23v0q8 0 18 5q51 33 65 44q2 2 9.5 7t9.5 6.5t8.5 5.5t9 5t8 4t8.5 4l7.5 2.5t8.5 2t9 0.5q25 0 57 -18q45 -25 80 -50.5t56 -46.5t35.5 -42t19 -37.5t6.5 -32.5t-3 -27q-15 -57 -81.5 -93.5t-151.5 -36.5v0v0z
M152 753h-2q-39 -10 -62 -79t-3 -151q25 -101 77.5 -195t124.5 -166q156 -151 363 -202q35 -8 73 -8q62 0 106.5 23t51.5 47q2 6 -0.5 14.5t-12.5 22.5t-26.5 30t-47.5 37.5t-71 43.5l-18 8q-3 0 -8 -3.5t-13 -9t-13 -8.5q-4 -3 -16.5 -12t-26 -17.5t-27.5 -16.5
q-27 -16 -57 -16v0q-15 0 -30 3t-27.5 8.5t-21.5 10t-17.5 9.5t-9.5 5q-69 46 -101 81q-14 13 -28.5 30.5t-23.5 30t-18.5 26t-10.5 14.5q-15 19 -25 44.5t-12 58.5t16 60q15 25 47 70q21 26 21 36q0 6 -8 18q-23 42 -46 73t-38.5 45.5t-29.5 23.5t-19.5 10t-9.5 1v0v0z
M983 411h-7q-11 3 -16 12.5t-2 20.5q26 82 5 164.5t-82 143.5t-144 82.5t-166 -3.5q-8 -3 -18 2.5t-13 14.5q-3 11 2 20.5t16 12.5q95 28 191.5 3.5t167.5 -95.5q72 -72 96 -168.5t-6 -192.5q-6 -19 -24 -17v0v0zM833 404h-7q-11 3 -16 12.5t-3 20.5q14 52 0.5 104
t-51.5 90.5t-90 52t-104 -0.5q-10 -5 -19.5 0t-11.5 16q-2 10 3.5 19t14.5 10q64 18 130 1t114 -65t65 -113.5t-1 -130.5q-1 -6 -8.5 -11t-15.5 -5v0v0zM697 397q-7 0 -9 1q-9 5 -13.5 14.5t-0.5 18.5q5 17 5 21q9 42 -24 75q-17 18 -43 23t-50 -3q-10 -4 -19.5 0.5
t-13.5 14.5q-4 9 0.5 18.5t13.5 14.5q40 16 80 7t69 -39q50 -50 38 -119q0 -16 -9 -31q-5 -16 -24 -16v0v0z" />
    <glyph glyph-name="weixinzhifu" unicode="&#xe62f;" 
d="M819 896h-614q-85 0 -145 -60t-60 -145v-614q0 -85 60 -145t145 -60h614q85 0 145 60t60 145v614q0 85 -60 145t-145 60v0zM512 68q-73 0 -141 23q-71 -47 -92.5 -57t-20.5 9l1 5l16 92q-67 47 -105.5 115.5t-38.5 146.5q0 91 51 168t138.5 122t191.5 45q95 0 177 -38.5
t135 -103.5l-374 -173q-31 -12 -57 4q-12 8 -27.5 18.5t-25.5 17.5l-9 7l-15 9q-14 4 -10 -17q2 -8 6 -20l57 -134q0 -2 1 -4.5t4.5 -8t8.5 -8.5t15.5 -2t22.5 9q30 16 432 258q40 -70 40 -148q0 -91 -51 -168.5t-138.5 -122t-191.5 -44.5v0z" />
    <glyph glyph-name="yinlianzhifu" unicode="&#xe630;" horiz-adv-x="1640" 
d="M913 267l5 25h61l-5 -18q-36 0 -41 -1q-11 -2 -20 -6v0zM949 227h-46l4 15h57l-5 -15h-1h-3h-6v0zM884 227l1 2v-2h-1v0zM878 198l-19 -81q-3 1 -4 3q-2 2 1 12l20 66h2v0zM1636 790l-190 -815q-9 -38 -40.5 -67t-69.5 -35h-4h-408q-43 0 -66 30t-13 73l25 108h12l11 36
l-15 -2l18 80h51h23q7 1 17 6q8 4 12 11q7 10 13 28l25 83h-74q-23 -3 -33 -7l-6 -3l17 73h6l3 2q4 25 11 58l3 14q9 40 6 51l65 277q9 38 40.5 67t69.5 35h-15h-3q-39 -6 -70.5 -35t-40.5 -67l-60 -260q-7 3 -16 3q-17 0 -33 -8q-4 -2 -13 -8l4 15l-2 2q-25 -5 -55 -9
l-2 -1q-5 -38 -16 -85q-9 -41 -12 -50l2 -2q25 1 52 1l2 2q7 36 9 44q11 49 12 53q10 5 15 5q11 0 10 -15q-1 -12 -9 -48l-3 -13q-1 -3 -3 -12.5t-4 -14.5l1 -2q18 1 27 1l-14 -63h-41l-64 -211q-3 -13 -4 -17q0 -4 8 -11q3 -2 15 -3h25h4l-25 -108q-10 -43 13 -73t66 -30
h-402q-7 -1 -12 -1h-409q-43 0 -66 30.5t-13 72.5l190 815q10 43 47.5 73.5t80.5 30.5h385q7 1 12 1h470q8 0 15 -2h354q43 0 66 -30.5t13 -72.5v0zM844 309h-53l9 18h-53l-14 -25q-4 -8 -7 -10t-13 -2h-7l-9 -31h23q12 0 24 6q2 1 4.5 2t4.5 3l8 6h73l10 33v0zM688 106
q-2 -5 3 -14q4 -5 10 -7q8 -1 13 -1h60l11 35l-27 -4q-2 0 -5 0.5l-6 1t-5 1.5t-1 3l13 43h53l10 32h-54l8 26h53l9 31h-130l-9 -31h29l-8 -26h-30l-9 -33h29l-17 -57v0zM566 389l1 -1q21 1 27 1h28l1 1l1 1q1 4 1.5 8t1 6t1 4.5t7.5 33.5q1 6 3.5 16.5t3.5 13.5
q1 2 3.5 12.5t3.5 16.5v1l-1 1q-21 -4 -29 -5q-3 -1 -7 -1.5t-10 -1t-11 -1.5l-1 -1l-1 -1q-2 -19 -4 -26q-2 -15 -7 -36q-3 -13 -6 -21q-4 -11 -6 -20v-1v0zM648 544q-8 5 -21.5 3.5t-23.5 -8.5t-11.5 -15.5t7.5 -13.5t22 -3.5t23.5 8.5t11.5 15.5t-8 13.5v0zM369 634
q0 -2 -3.5 -17t-8 -34.5t-8.5 -39.5t-7 -33.5l-3 -13.5q-10 -45 -26 -57q-13 -11 -30 -11q-28 0 -31 27v6l5 36q30 119 35 134q0 1 1 2q-68 0 -69 1l-2 -8l-30 -134l-3 -12l-5 -37q0 -16 6 -28q16 -27 76 -27q46 0 74 17q15 8 25 22t14 24t8 28l4 13q31 123 36 140v1
q-52 0 -58 1v0zM701 893h-19h-3q-39 -6 -70.5 -35t-40.5 -67l-61 -262q-4 -1 -8 -3q-3 -1 -13 -8l4 15l-3 2q-24 -5 -55 -9l-2 -1q-5 -39 -15 -85q-6 -27 -12 -50l1 -2q26 1 53 1l2 2q4 24 9 44q10 48 11 53q11 5 15 5q3 0 5 -1l-121 -516q-10 -43 13.5 -73t65.5 -30h23
q-43 0 -66.5 30t-13.5 73l97 412q18 1 42 1l2 2q4 24 11 58l4 15q9 42 4 54q-6 16 -28 16h-1l60 257q9 38 40.5 67t69.5 35v0v0v0zM801 515q-14 18 -49 18q-39 0 -62 -22q-19 -17 -27 -53q-12 -53 22 -67q13 -5 34 -5q41 0 65 25q16 17 23 48q8 38 -6 56v0zM1200 84
q23 0 37 19l26 35l5 -35q2 -9 9 -13q11 -5 13 -5h12h18l10 34h-7q-10 0 -12 2q0 1 -1 8l-6 35h-23l10 12h56l9 28h-52l8 26h52l10 32h-155l-9 -32h55l-8 -26h-56l-9 -28h50l-38 -52q-3 -5 -7 -7q-6 -3 -10 -3h-14l-9 -30h36v0zM965 192l-4 -14q-1 -3 -3 -5q-2 -1 -8 -1h-11
l1 18h-44l-2 -89q0 -9 5 -13t39 -4h27l10 33l-24 -1h-8q-2 0 -3 2q-3 2 -2 6v23l25 1q14 0 24 9q5 4 8 15l5 20h-35v0v0zM1029 126h-10l-9 -32h96l-3 -10h47l3 10h14l10 34h-13l49 165h17l5 17l1 -19q-1 -10 7.5 -16t24.5 -4h28l10 31h-10q-9 0 -9 5l-1 19h-51v0
q-66 -1 -77 -4q-5 -2 -11.5 -5t-9.5 -5l-4 -3l5 17h-48l-10 -33l-51 -167v0zM1205 613q-10 14 -28 17.5t-52 3.5h-17q-59 -1 -69 1l-2 -9l-16 -74q-38 -156 -40 -164q53 1 61 0q1 3 3.5 16t5 24l2.5 11q8 32 8 33q2 4 5 5h3q23 0 36 0.5t32.5 6t32.5 15.5q31 22 40 63
q3 12 3 22q0 18 -8 29v0zM1341 531q-25 -4 -57 -9l-2 -1q0 -3 -1 -6q-6 10 -18 15q-9 3 -26 -2.5t-33 -19.5q-19 -18 -27 -53q-12 -52 22 -66q14 -6 29 -5q13 1 27 12q-1 -2 -2 -8l1 -2q24 1 55 1l2 1q7 42 17 83q6 25 14 58l-1 2v0zM1510 534q-28 -6 -53 -9l-2 -2v-1v0v0
q-9 -21 -17 -35t-14 -27v1.5v1.5l-4 69l-2 2q-38 -8 -52 -9l-2 -2v-3v0q3 -13 6 -37q0 -6 2 -18t2 -18q5 -39 7 -61q-7 -10 -17.5 -29t-18.5 -32l-12 -18q-2 -3 -4 -4t-7 -1h-6l-10 -30l32 -1q26 0 37 20l137 241l-2 2v0zM1266 438q-3 -8 -6 -12q-7 -10 -20 -10
q-12 0 -12 15q0 8 3 23q5 21 11 32t17 11q17 0 15 -25q-1 -6 -3 -13q-2 -10 -5 -21v0zM1120 521q-13 -6 -40 -6h-9l1 4l17 73v4v2h7q35 -3 36 -3q22 -9 15 -37q-5 -26 -27 -37v0zM1128 165l-11 -37h-39l12 37h38v0zM1096 186l13 44h39l-10 -31q-12 -1 -20 -3l-22 -10v0z
M1116 251l12 42h39l-9 -31q-12 -1 -20 -3l-22 -8v0zM741 428q-7 -10 -16 -10q-11 0 -12 15q0 9 4 24q10 44 28 44q17 0 8 -39q-5 -24 -12 -34v0z" />
    <glyph glyph-name="zaixiankefu" unicode="&#xe631;" 
d="M512 895q-96 0 -183.5 -38t-151 -101.5t-101 -151.5t-37.5 -185q0 -115 51.5 -216.5t144.5 -168.5l-73 -119q-10 -18 3 -33q9 -10 22 -10q5 0 10 2l196 85q59 -15 119 -15q97 0 184.5 37.5t151 101.5t101 152t37.5 184.5t-37.5 184.5t-101 151.5t-151 101.5t-184.5 38v0z
M512 1q-57 0 -113 16q-9 2 -18 -1l-126 -57l42 69q6 10 3.5 21t-12.5 18q-90 58 -141.5 151.5t-51.5 200.5q0 114 56 210.5t152 152.5t209.5 56t209.5 -56t152 -152.5t56 -210t-56 -210t-152 -152.5t-210 -56v0zM744 507q0 24 -16.5 40.5t-40 16.5t-40 -16.5t-16.5 -40
t16.5 -40.5t40 -17t40 17t16.5 40v0zM402 507q0 24 -16.5 40.5t-40 16.5t-40 -16.5t-16.5 -40t16.5 -40.5t40 -17t40 17t16.5 40v0zM648 344q-11 4 -21.5 -0.5t-15.5 -15.5l-3 -6t-10 -14t-18 -17.5t-27 -13.5t-37 -6t-37 5.5t-26.5 12t-17 15.5t-9.5 14t-4 8
q-3 11 -13.5 16.5t-21.5 2t-16.5 -14t-1.5 -21.5q1 -5 4 -12t14.5 -23t26.5 -28t42.5 -22t59.5 -10q31 0 57 9.5t41.5 21.5t27.5 27.5t16 22.5t5 12q5 11 0.5 21.5t-15.5 15.5v0zM208 388q-4 0 -7.5 -3.5t-3.5 -8t3.5 -7.5t8 -3t7.5 3t3 7.5t-3 8t-8 3.5v0zM259 388
q-5 0 -8 -3.5t-3 -8t3 -7.5t7.5 -3t7.5 3t3 7.5t-3 8t-7 3.5v0zM233 354q-4 0 -7.5 -3.5t-3.5 -8t3.5 -7.5t8 -3t7.5 3t3 7.5t-3 8t-8 3.5v0zM284 354q-5 0 -8 -3.5t-3 -8t3 -7.5t7.5 -3t8 3t3.5 7.5t-3.5 8t-7.5 3.5v0zM259 321q-5 0 -8 -3.5t-3 -8t3 -7.5t7.5 -3t7.5 3
t3 7.5t-3 8t-7 3.5v0zM315 388q-4 0 -7.5 -3.5t-3.5 -8t3.5 -7.5t8 -3t7.5 3t3 7.5t-3 8t-8 3.5v0zM734 388q-5 0 -8 -3.5t-3 -8t3 -7.5t7.5 -3t7.5 3t3 7.5t-3 8t-7 3.5v0zM784 388q-5 0 -8 -3.5t-3 -8t3 -7.5t7.5 -3t8 3t3.5 7.5t-3.5 8t-7.5 3.5v0zM759 354q-5 0 -8 -3.5
t-3 -8t3 -7.5t7.5 -3t8 3t3.5 7.5t-3.5 8t-7.5 3.5v0zM809 354q-5 0 -8 -3.5t-3 -8t3 -7.5t8 -3t8 3t3 7.5t-3 8t-8 3.5v0zM784 321q-5 0 -8 -3.5t-3 -8t3 -7.5t7.5 -3t8 3t3.5 7.5t-3.5 8t-7.5 3.5v0zM841 388q-5 0 -8 -3.5t-3 -8t3 -7.5t7.5 -3t8 3t3.5 7.5t-3.5 8
t-7.5 3.5v0z" />
    <glyph glyph-name="zhifubaozhifu" unicode="&#xe632;" horiz-adv-x="1025" 
d="M1024 195v504q0 82 -57.5 139.5t-139.5 57.5h-630q-82 0 -139.5 -57.5t-57.5 -139.5v-630q0 -82 57.5 -139.5t139.5 -57.5h630q72 0 127 46t67 116q-283 122 -396 177q-72 -87 -148.5 -130.5t-177.5 -43.5q-105 0 -169 56.5t-56 137.5q3 24 10.5 46t26.5 47.5t46.5 42.5
t74.5 25.5t107 3.5q23 -2 43 -5t40 -7l32.5 -6.5t33.5 -9t30.5 -9.5t35 -11.5t35.5 -12.5q35 65 57 140h-398v39h197v71h-240v43h240v102q0 2 1 4.5t6 7t13 4.5h98v-118h256v-43h-256v-71h209q-28 -116 -85 -213q27 -9 111.5 -36t154.5 -48l71 -22v0v0v0zM284 104
q-36 0 -65 7.5t-46.5 19t-30.5 26t-17.5 29.5t-7 28.5t0.5 23.5q7 35 42 63t93 28q131 0 284 -75q-55 -71 -120 -110.5t-133 -39.5v0v0z" />
    <glyph glyph-name="zhuanjia" unicode="&#xe633;" 
d="M643 240q-9 0 -16 5q-52 38 -101 33q-11 -1 -19.5 5.5t-9.5 16.5q-1 11 5.5 19t17.5 10q49 5 99 -19q18 79 103 114q-44 77 -1 167q-99 25 -122 105q-37 -21 -76 -23q-10 -1 -18 6.5t-9 17.5q-1 11 6.5 19t18.5 9q40 2 81 36q12 10 26.5 3.5t15.5 -23.5q0 -17 4.5 -31
t16 -30.5t37 -28t62.5 -17.5q14 -2 19.5 -15t-1.5 -24q-60 -95 1 -169q8 -11 4 -25q-4 -13 -18 -17q-106 -27 -102 -118q1 -16 -14 -23q-4 -3 -11 -3h1v0zM395 240q-6 0 -12 3q-14 7 -14 24q1 46 -23.5 75t-78.5 43q-14 3 -18 16.5t5 24.5q60 74 1 169q-8 11 -2 25
q6 12 19 15q38 5 63.5 17t37 28t15.5 30.5t5 31.5q1 16 15 22q14 7 27 -3q40 -34 81 -36q11 -1 18 -9t6.5 -18.5t-8.5 -18t-18 -6.5q-39 2 -76 23q-24 -79 -122 -106q42 -90 -2 -167q87 -34 103 -114q51 26 101 19q10 -1 17 -9t5 -19q-1 -11 -9.5 -17.5t-19.5 -5.5
q-48 6 -102 -32q-6 -5 -14 -5v0v0zM711 36q-13 0 -20 10l-89 113q-7 8 -5.5 18.5t9.5 17.5q9 7 19.5 5.5t16.5 -9.5l44 -55v89q0 11 7.5 18.5t18 7.5t18 -8t7.5 -18v-163q0 -18 -17 -25q-5 -1 -9 -1v0v0zM327 36q-4 0 -9 2q-17 6 -17 24v164q0 10 7.5 17.5t18 7.5t18 -7.5
t7.5 -17.5v-89l43 54q7 9 17.5 10t19 -5.5t9.5 -17t-5 -19.5l-89 -112q-7 -11 -20 -11v0v0zM511 -128v0q-211 2 -360 150q-151 151 -151 362q0 212 151 362q149 150 360 150q212 0 362 -150q151 -149 151 -361t-151 -362q-150 -150 -362 -151v0v0v0zM511 835
q-186 0 -318 -132q-133 -132 -133 -319q0 -186 133 -320q131 -131 318 -132q187 1 319 133q133 132 133 319t-133 319q-131 132 -319 132v0v0z" />
    <glyph glyph-name="yijianhujiao" unicode="&#xe634;" 
d="M512 896q-104 0 -199 -40.5t-163.5 -109t-109 -163.5t-40.5 -199t40.5 -199t109 -163.5t163.5 -109t199 -40.5t199 40.5t163.5 109t109 163.5t40.5 199t-40.5 199t-109 163.5t-163.5 109t-199 40.5zM512 -118q-102 0 -195 40t-160 107t-107 160t-40 195t40 195t107 160
t160 107t195 40t195 -40t160 -107t107 -160t40 -195t-40 -195t-107 -160t-160 -107t-195 -40zM608 287l-8 3q-1 0 -3.5 -1.5t-6.5 -4t-6 -3.5l-32 -21q-12 -8 -25 -8q-7 0 -14 1.5t-12.5 4t-10 4.5t-8 4.5t-4.5 2.5q-31 21 -46 37q-8 8 -36 46q-7 8 -11.5 19.5t-5.5 27
t7 27.5q7 11 21 32q10 12 10 16q0 3 -4 9q-17 30 -33 47t-22 19.5t-10 2.5h-1q-17 -5 -27.5 -36.5t-1.5 -68.5q24 -96 92 -164q70 -69 165 -92q16 -3 33 -3q28 0 48.5 10t23.5 21q1 5 -3 13t-21.5 23t-47.5 32zM512 863q-97 0 -186 -38t-153 -102t-102 -153t-38 -186
t38 -186t102 -153t153 -102t186 -38t186 38t153 102t102 153t38 186t-38 186t-102 153t-153 102t-186 38zM529 541q29 8 59 0t52 -29.5t29.5 -51.5t-0.5 -59q-1 -8 -11 -8h-3q-12 3 -9 15q14 52 -23 88.5t-88 23.5q-5 -2 -9 0t-5 7q-2 12 8 14zM526 480q18 7 36.5 3
t31.5 -17q23 -23 17 -55q0 -7 -4 -14q-2 -7 -11 -7q-3 0 -4 1q-11 4 -6 15q2 7 2 9q4 19 -11 34q-17 18 -42 9q-11 -4 -15 7q-5 10 6 15zM714 210q-7 -26 -37 -42.5t-69 -16.5q-24 0 -41 5q-105 25 -181 101q-76 78 -101 181q-14 53 3 96t49 52q3 2 11 2q47 0 97 -90
q7 -14 7.5 -24.5t-3 -17.5t-12.5 -19q-1 -2 -8 -12t-12 -18q-9 -13 8 -35l1 -2q16 -23 32 -40q7 -7 17 -15t16 -12.5t7 -4.5l1 -1q16 -10 28 -10q3 0 8 2q23 15 29 20q25 17 36 17t26 -9q101 -56 88 -107zM737 404q-2 -9 -10 -8h-4q-11 3 -8 15q12 38 2.5 75.5t-37.5 65
t-66 37.5t-75 -2q-4 -1 -8.5 1.5t-5.5 6.5q-3 12 8 15q43 13 87 2t76.5 -43.5t43.5 -76.5t-3 -88z" />
    <glyph glyph-name="fanhuigerenzhongxin" unicode="&#xe635;" 
d="M512 896q-139 0 -257 -68.5t-186.5 -186.5t-68.5 -257t68.5 -257t186.5 -186.5t257 -68.5t257 68.5t186.5 186.5t68.5 257t-68.5 257t-186.5 186.5t-257 68.5zM817 77h-16h-304h-274h-16v15q0 72 40.5 133t110.5 97q5 3 11 1t9 -8q7 -14 -7 -21q-58 -30 -93 -79t-39 -107
h258h288q-7 88 -87.5 153.5t-185.5 65.5h-2h-6q-72 0 -123.5 52.5t-51.5 127.5t51.5 127.5t124 52.5t123.5 -52.5t51 -127.5q0 -50 -24.5 -92.5t-66.5 -65.5q98 -24 163.5 -96.5t65.5 -160.5v-15zM360 507q0 62 42.5 105.5t102 43.5t102 -43.5t42.5 -105.5t-42.5 -105.5
t-102 -43.5t-102 43.5t-42.5 105.5z" />
    <glyph glyph-name="yuezhifuqianbao" unicode="&#xe63c;" 
d="M0 595v4l1 2q5 26 19 38.5t40 14.5h15h428.5h389.5q17 0 28 -2q20 -4 34.5 -20.5t14.5 -37.5q1 -55 0 -149q0 -10 -3 -13.5t-13 -3.5h-71h-128.5h-128.5q-33 0 -57 -18.5t-33 -49.5q-3 -9 -3 -21v-132q0 -35 23 -60t57 -29q17 -2 38 -2h292q20 0 24 -4t4 -24v-134
q-1 -29 -21 -49q-3 -3 -7.5 -5.5t-7.5 -3t-8.5 -2t-8.5 -2.5h-9q-2 2 -12 2h-831q-10 0 -12 -2h-7q-3 1 -8.5 2.5t-8.5 1.5q-22 8 -27 30q-3 13 -3 14v6q1 2 1 12v625q0 10 -1 12v0zM586 874q24 -4 36 -24q1 -2 23 -44q3 -7 -5 -8l-2 -1q-34 -9 -129 -35q-229 -63 -257 -70
q-1 -4 -30.5 -3.5t-30.5 0.5q0 3 8 7q49 24 165.5 81.5t178.5 89.5q2 1 6 2t7 2.5t5 4.5h5q3 -2 10 -1.5t10 -0.5v0zM0 595q2 -3 2 -13v-623q0 -10 -2 -13v649v0zM381 691q15 4 70.5 19.5t85.5 23.5q127 35 212 58q27 7 43 2q28 -10 36 -36q4 -12 10.5 -35t7.5 -26
q2 -9 -7 -8h-3h-3h-441h-11v1v1v0zM1024 339q-3 26 -19.5 40.5t-43.5 14.5h-293q-39 0 -47 -1q-22 -1 -37 -15t-16 -36q-4 -59 -1 -135q1 -26 17.5 -41t42.5 -15h338q25 0 40.5 15t18.5 41v66v66v0zM706 232q-21 0 -30 9t-9 30t8.5 29.5t30 8.5t30 -8.5t8.5 -30t-8.5 -30
t-29.5 -8.5v0z" />
    <glyph glyph-name="anzhuo" unicode="&#xe639;" 
d="M891 575q-26 0 -44 -18.5t-18 -44.5v-247q0 -27 18 -45.5t44 -18.5t44 18.5t18 45.5v247q0 26 -18 44.5t-44 18.5v0zM139 575q-25 0 -43.5 -18.5t-18.5 -44.5v-247q0 -27 18.5 -45.5t44 -18.5t44 18.5t18.5 45.5v247q0 26 -18.5 44.5t-44.5 18.5v0zM239 573v-452
q0 -20 14.5 -34t34.5 -14h55v-138q0 -26 18.5 -44.5t44 -18.5t44 18.5t18.5 44.5v138h97v-138q0 -26 18 -44.5t44 -18.5t44 18.5t18 44.5v138h56q20 0 34.5 14t14.5 34v452h-555v0v0zM647 807l51 75q5 8 -2 13t-13 -3l-53 -78q-54 22 -114.5 22t-115.5 -22l-53 78
q-6 8 -13 3t-1 -13l51 -75q-62 -29 -101.5 -80t-44.5 -114h554q-5 63 -44.5 114t-100.5 80v0zM398 690q-13 0 -21.5 9t-8.5 22t9 21.5t21.5 8.5t21.5 -8.5t9 -21.5t-9 -22t-22 -9v0zM636 690q-13 0 -22 9t-9 22t9 21.5t22 8.5t22 -8.5t9 -21.5t-9 -22t-22 -9v0z" />
    <glyph glyph-name="pingguo" unicode="&#xe63a;" 
d="M833 222q42 -60 97 -77q-24 -73 -75 -153q-80 -119 -157 -119q-29 0 -85 20q-53 19 -92 19t-86 -20q-50 -20 -81 -20q-93 0 -183 157q-89 156 -89 306q0 139 68 227q70 89 173 89q22 0 50 -5.5t58 -21.5q32 -17 52.5 -24t31.5 -7q14 0 41.5 6.5t55.5 22.5q30 17 51.5 25
t44.5 8q72 0 129 -39q31 -21 63 -61q-47 -41 -69 -72q-40 -57 -40 -125q0 -75 42 -136v0zM626 702q-36 -34 -66 -44q-10 -3 -26 -5.5t-36 -4.5q1 90 47 156t152 91l3 -15v-11q0 -37 -17 -83q-19 -46 -57 -84v0z" />
    <glyph glyph-name="tishihei" unicode="&#xe68f;" 
d="M512 896q-138 0 -256 -69t-187 -187t-69 -256t69 -256t187 -187t256 -69t256 69t187 187t69 256t-69 256t-187 187t-256 69zM603 106h-186v22h47v347h-47v22h139v-369h47v-22zM501 688q25 0 42 -17t17 -42t-17 -41.5t-42 -16.5t-41.5 16.5t-16.5 41.5t16.5 42t41.5 17z
" />
    <glyph glyph-name="tishibai" unicode="&#xe691;" 
d="M512 896q-139 0 -257 -68.5t-186.5 -186.5t-68.5 -257t68.5 -257t186.5 -186.5t257 -68.5t257 68.5t186.5 186.5t68.5 257t-68.5 257t-186.5 186.5t-257 68.5zM512 -87q-96 0 -183 37.5t-150 100.5t-100.5 150t-37.5 183t37.5 183t100.5 150t150 100.5t183 37.5
t183 -37.5t150 -100.5t100.5 -150t37.5 -183t-37.5 -183t-100.5 -150t-150 -100.5t-183 -37.5zM558 484h-139v-22h48v-346h-48v-23h186v23h-47v368zM502.5 557q24.5 0 42 17.5t17.5 41.5t-17.5 41.5t-42 17.5t-41.5 -17.5t-17 -41.5t17 -41.5t41.5 -17.5z" />
    <glyph glyph-name="yifukuan" unicode="&#xe68c;" 
d="M626 420l-12 -11q-5 -6 0 -12l46 -46l12 -11q5 -6 11 0l57 57q6 6 0 12l-11 11q-6 5 -11 0l-40 -40l-40 40q-7 5 -12 0zM922 896h-820q-42 0 -72 -30t-30 -72v-820q0 -42 30 -72t72 -30h820q42 0 72 30t30 72v820q0 42 -30 72t-72 30zM791 214q11 -5 20 -6
q-9 -18 -14 -37h66q-1 -5 -4 -14.5t-3 -10.5l-6 -21l-19 2q7 16 10 29h-49q-8 -17 -19 -35q-8 5 -17 9q11 14 17 29q4 10 10 28q2 4 8 27zM725 158q17 0 29 1v-17q-12 1 -29 1h-39q-6 0 -31 -2v18q13 -1 31 -1h12v20h-19q-7 0 -30 -2v18q13 -1 29 -1h20q0 17 -1 25h20
q-1 -7 -1 -25h16q21 0 32 1v-18q-23 2 -32 2h-16v-20h9zM753 126v-17q-21 2 -29 2h-40q-8 0 -29 -2v17q11 -1 29 -1h40q18 0 29 1zM776 386q0 -41 -28.5 -69.5t-69.5 -28.5t-69.5 28.5t-28.5 69.5t28.5 69.5t69.5 28.5t69.5 -28.5t28.5 -69.5zM269 729q0 20 14.5 34.5
t34.5 14.5h376q20 0 34.5 -14t14.5 -35v-229q-30 17 -65 17q-32 0 -64 -16h-84v49h107q3 0 5.5 2.5t2.5 5.5v16q0 4 -2.5 6.5t-5.5 2.5h-99l1 1q3 3 3 7l83 76q7 7 0 13l-15 13q-7 7 -14 0l-82 -73l-81 73q-7 7 -14 0l-15 -13q-7 -8 0 -13l83 -76q0 -4 3 -7l2 -1h-100
q-3 0 -5.5 -2.5t-2.5 -6.5v-16q0 -3 2.5 -5.5t5.5 -2.5h107v-49h-107q-3 0 -5.5 -2.5t-2.5 -5.5v-17q0 -3 2.5 -5.5t5.5 -2.5h107v-74q0 -3 2.5 -5.5t5.5 -2.5h15q3 0 5.5 2.5t2.5 5.5v74h45q-28 -35 -28 -82q0 -45 28 -82h-257q-20 0 -34.5 14.5t-14.5 34.5v376zM362 16
q-7 -8 -20 -10h-125q-17 -1 -25 7t-7 23v81q0 17 -1 35h23q-1 -10 -1 -27h123v59h-105q-30 0 -49 -1v19q19 -1 48 -1h126q0 -6 -0.5 -17t-0.5 -16v-35q0 -25 1 -39h-20v15h-124v-63q-2 -23 23 -21h94q15 -2 22 5q6 6 9 31q15 -8 24 -10q-8 -27 -15 -35zM461 1h-21q1 10 1 44
v89q-17 -28 -26 -36q-6 8 -13 14q16 16 31 44q18 34 26 63q9 -6 20 -10q-2 -2 -9 -16q-8 -17 -11 -25v-121q0 -8 0.5 -24t1.5 -22zM496 114q2 1 16 10q15 -27 23 -45q-3 -1 -6 -2.5l-7 -3.5l-6 -3q-8 21 -20 44zM620 142q-7 1 -26 1h-11v-112q1 -18 -12 -23q-11 -5 -30 -7
q-3 10 -9 22q23 -2 28 2q3 1 3 11v107h-57q-21 0 -31 -1v18q10 -1 32 -1h56v28q0 17 -1 24h22q-2 -16 -2 -26v-26h12q19 0 26 1v-18zM657 17q-5 7 -15 12q10 12 13 17q9 14 12 23q12 -7 17 -10q-1 -1 -5 -7.5t-6 -10.5q-3 -7 -16 -24zM716 27q0 -15 -7 -18q-13 -5 -25 -7
q-1 10 -9 21q18 -2 21 2q2 2 2 7v46h-21q-8 0 -29 -2v17q11 -1 30 -1h54q20 0 29 1v-17q-19 2 -29 2h-16v-51zM735 42q-1 3 -10 16q1 1 6.5 4.5t9.5 5.5q2 -5 9 -15q0 -1 3.5 -7.5t6.5 -9.5q-10 -5 -17 -10zM850 3q-19 16 -29 31q-9 14 -15 31q-5 -17 -15 -33
q-8 -12 -30 -33q-7 11 -12 16q10 8 20 18q10 12 14 22q5 10 9 24q0 1 3 23v26l12.5 -2.5t8.5 -1.5q-1 -5 -3 -18q-2 -10 4 -28q6 -20 19.5 -36t28.5 -23q-11 -9 -15 -16z" />
    <glyph glyph-name="biaodian" unicode="&#xe68d;" 
d="M116 51q-107 119 -115 318q-8 198 107 333q116 136 272 175q158 39 301 -8q144 -46 247 -177q102 -130 97 -320q-6 -191 -111 -316t-254 -164t-293 0t-251 159zM967 400q-5 172 -104.5 281.5t-223.5 143.5q-122 34 -251 -3q-128 -37 -228 -146q-99 -109 -102 -287
q-3 -177 99 -297q103 -120 233 -151t259 5t225 159q99 122 93 295zM613 374q-7 -52 -63 -76q-54 -24 -102 10q-47 34 -39 91q7 58 65 79t103 -16q45 -36 36 -88z" />
    <glyph glyph-name="youhuiquan-zuosekuaixianjie" unicode="&#xe63b;" 
d="M515 896q0 -12 -8.5 -20t-20.5 -8v-30q6 0 9.5 -4t3.5 -10v0q0 -5 -3.5 -9t-9.5 -5v-24q6 0 9.5 -4t3.5 -9.5t-3.5 -9.5t-9.5 -4v-25q6 0 9.5 -4t3.5 -9.5t-3.5 -9.5t-9.5 -4v-24q6 -1 9.5 -5t3.5 -9t-3.5 -9t-9.5 -5v-24q6 0 9.5 -4t3.5 -10v0q0 -5 -3.5 -9t-9.5 -5v-24
q6 0 9.5 -4t3.5 -9.5t-3.5 -9.5t-9.5 -4v-25q6 0 9.5 -4t3.5 -9v0q0 -6 -3.5 -10t-9.5 -4v-25q6 0 9.5 -4t3.5 -9.5t-3.5 -9.5t-9.5 -4v-24q6 -1 9.5 -5t3.5 -9.5t-3.5 -9.5t-9.5 -4v-24q6 0 9.5 -4.5t3.5 -9.5t-3.5 -9t-9.5 -5v-24q6 0 9.5 -4t3.5 -9.5t-3.5 -9.5t-9.5 -4
v-25q6 0 9.5 -4t3.5 -10v0q0 -5 -3.5 -9t-9.5 -4v-25q6 0 9.5 -4t3.5 -9.5t-3.5 -9.5t-9.5 -4v-24q6 -1 9.5 -5t3.5 -9t-3.5 -9.5t-9.5 -4.5v-24q6 -1 9.5 -5t3.5 -9t-3.5 -9t-9.5 -5v-24q6 0 9.5 -4t3.5 -9.5t-3.5 -9.5t-9.5 -4v-25q6 0 9.5 -4t3.5 -9.5t-3.5 -9.5t-9.5 -4
v-24q6 -1 9.5 -5t3.5 -9v0q0 -6 -3.5 -10t-9.5 -4v-30q12 0 20.5 -8t8.5 -20h23v1024h-23z" />
    <glyph glyph-name="youhuiquan-zuosekuai" unicode="&#xe63d;" 
d="M1024 -100v30q-6 0 -10 4t-4 9.5t4 10t10 4.5v24q-6 0 -10 4t-4 9.5t4 9.5t10 4v25q-6 0 -10 4t-4 9.5t4 9.5t10 4v24q-6 0 -10 4t-4 10t4 10t10 4v24q-6 0 -10 4t-4 10t4 10t10 4v24q-6 0 -10 4t-4 9.5t4 9.5t10 4v25q-6 0 -10 4t-4 9.5t4 9.5t10 4v24q-6 0 -10 4.5
t-4 10t4 9.5t10 4v24q-6 0 -10 4t-4 10t4 10t10 4v24q-6 0 -10 4t-4 10t4 10t10 4v24q-6 0 -10 4t-4 9.5t4 9.5t10 4v25q-6 0 -10 4t-4 9.5t4 9.5t10 4v25q-6 0 -10 4t-4 9.5t4 9.5t10 4v24q-6 0 -10 4t-4 10t4 10t10 4v24q-6 0 -10 4t-4 10t4 10t10 4v24q-6 0 -10 4t-4 9.5
t4 9.5t10 4v25q-6 0 -10 4t-4 9.5t4 9.5t10 4v24q-6 0 -10 4.5t-4 10t4 9.5t10 4v30q-12 0 -20 8t-8 20h-970q-11 0 -18.5 -7.5t-7.5 -18.5v-972q0 -11 7.5 -18.5t18.5 -7.5h970q0 12 8 20t20 8zM422 573h15l5 14l4 -14h15l-12 -9l4 -14l-12 9l-12 -8l5 14zM563 573h15l5 14
l4 -14h15l-12 -9l4 -14l-12 9l-12 -8l5 14zM485 576h22l7 20l7 -20l21 -1l-17 -12l6 -21l-18 13l-17 -12l6 20zM390 567h-267l10 4h257v-4zM901 567h-267v4h257z" />
    <glyph glyph-name="icon-yiguoqi" unicode="&#xe63e;" 
d="M325 434q16 2 16 -6v-3q0 -4 -2 -8q-1 -7 -1 -14.5t1 -14.5q2 -5 5 -15q6 -20 8 -25q4 -12 -4 -15q-15 -3 -38 -10q-20 -7 -41 -11q-26 -6 -33 4q-4 5 20 14q12 6 29 12q21 6 26 13q16 12 3 34q-10 18 -45 10q-61 -15 -121 -38l-7 29q28 6 73 17l29 7q31 9 73 18z
M179 357q5 -8 10 -17q11 -17 14 -18.5t20 -4.5q1 -1 3 -1q4 -1 4 -3v-1q0 -3 -2 -5q-3 -4 -6 -6q-13 -10 -14 -20q0 -29 14 -40q15 -15 75 2q47 12 53 22q9 9 -5 39l29 7q21 -60 -7 -67q-25 -12 -85 -27q-48 -11 -61 -8q-13 2 -21 11q-5 6 -14 35q-4 14 -6 28q-7 50 -22 60z
M402 459q15 -4 50 -32l-17 -22l-17 14q-23 18 -27 21zM428 387q30 8 34 -1q1 -2 -1 -7q-1 -2 -2 -5t-1 -4q-5 -14 -11 -16q-3 -2 -9 2q-3 3 -7 4v0q-9 0 -17 -3l-7 -2l-5 23q13 6 26 10v-1zM448 348q5 2 11 -12q3 -6 6 -14q2 -11 11 -18l4 -4q7 -6 6 -10q-1 -3 -7 -5
q-4 -2 -6 -4q-14 -13 -21 -30l-23 9q1 3 4 9q15 28 10 51q-3 26 5 28zM571 498v-1q0 -1 -1 -1q-1 -3 -1 -6q0 -12 12 -16h5q5 0 9 2l6 -22l-12 -3q-10 -3 -16 -12q-2 -3 -3 -3h-1q-5 0 -9 2q-7 3 -15 3q-3 0 -6 -1q-26 -7 -65 -18l-15 -5l-6 25q12 3 57 15l5 2q23 5 29 14
q7 12 10 26zM497 422q11 -7 23 -21.5t17 -26.5l-21 -14q-22 37 -34 48zM635 333l7 -27q-53 -15 -108 -22q-35 -4 -44 6q-4 5 30 12q59 11 115 31v0zM572 430q4 0 18 -21q16 -31 16 -53q-2 -49 -74 -24l5 24q44 -18 43 12q-7 29 -9 39q-5 24 1 23zM719 541h13q4 -17 16 -12
l5 -19q-12 -1 -13 -18q10 -40 17 -63q3 -7 5 -11l2 -4q4 -12 13 -6l6 -26q-45 -10 -89 -24q-14 -5 -20 -6l-6 25q0 -1 1 -1q8 0 12 8q1 3 1 6v3q-2 9 -2 18q-2 22 -9 43l-2 7q-4 29 -22 19l-6 21q16 1 11 18l13 8q16 -16 21 -13l5 1q18 4 21 8q4 7 5 15q1 1 2 3zM714 364
l13 -5q-5 -26 -23 -45l-21 14q19 15 31 36zM723 435q7 5 8 14q0 8 -10 9h-2q-6 0 -11 3q-5 2 0 7q2 3 6 4q9 6 9 11q-1 15 -19 14q-11 -1 -18 -10q-5 -10 2 -15q4 -2 9 -5q1 -2 4 -2q4 -2 1 -9q-7 -6 -7 -16v-1q2 -8 9 -8h2q5 1 9 2h1q4 0 7 3v-1zM744 404q-2 14 -14 14h-2
q-8 0 -15 -4q-3 -2 -5 -2q-5 -5 -5 -11q0 -4 2 -7q6 -7 23 -4q14 6 16 14v0zM824 374l10 18q21 -7 20 2q2 22 -10 29q-5 2 -10 2q-6 0 -11 -2q-12 -3 -12 -20q1 -44 -7 -62l-28 7v1v0l-13 -14q-11 13 -24 25l13 13q16 -6 26 -20q10 18 7 65q-1 14 -7 58q-6 33 -22 45
q-3 2 -3 3q-6 11 2 15q7 2 13 5q9 5 17 7q5 2 22 4q15 3 24 4q12 -1 11 -9q-2 -7 -2 -14.5t2 -14.5v-3v-2l2 -8q3 -14 4 -20v-3.5v-3.5v-10q-1 -4 -7 0q-13 12 -18 9q-23 -3 -22 -19q1 -18 21 -18q15 1 20 16q4 7 9 3q22 -35 31 -74q3 -24 -21 -27q-16 -4 -37 13v0zM821 524
q-10 9 -20 6q-13 -6 -13 -15v-5v-1q2 -6 3 -7q10 -8 25 0q12 7 5 22v0zM637 -112q-62 -16 -125 -16q-104 0 -199 40.5t-163.5 109t-109 163.5t-40.5 199t40.5 199t109 163.5t163.5 109t199 40.5q108 0 213 -52t181 -141t102 -194q16 -61 16 -125q0 -108 -52 -213t-141 -181
t-194 -102zM404 813q-91 -23 -168 -88.5t-122 -156t-45 -184.5q0 -90 35.5 -172t94.5 -141t141 -94t172 -35t172 35t141 94t94 141t35 172q0 55 -13 108q-23 91 -88.5 168t-156.5 121.5t-185 44.5q-54 0 -107 -13zM192 493q32 95 126 162.5t194 67.5q55 0 122.5 -26.5
t107.5 -64.5l60 15q-48 54 -133 91.5t-157 37.5q-127 0 -238.5 -87t-141.5 -211zM832 275q-32 -95 -126 -162.5t-194 -67.5q-55 0 -122.5 26.5t-107.5 64.5l-60 -15q48 -53 133 -91t157 -38q127 0 238.5 87.5t141.5 210.5z" />
    <glyph glyph-name="icon-yishiyong" unicode="&#xe63f;" 
d="M323 434q17 2 16 -6v-2q0 -5 -1 -9q-2 -7 -2 -14.5t2 -14.5q1 -5 4 -15q6 -20 9 -25q4 -11 -5 -15q-14 -3 -38 -10q-20 -7 -40 -11q-26 -6 -33 4q-4 5 19 14q12 6 30 12q21 6 25 13q16 12 3 34q-9 18 -45 10q-61 -15 -120 -37l-7 28q28 6 73 17l29 8q31 8 73 17zM177 357
q6 -8 10 -17q11 -17 14 -18.5t20 -4.5q2 -1 3 -1q4 -1 5 -3v-1q0 -3 -2 -5l-6 -6q-13 -10 -14 -20q0 -29 14 -40q15 -15 74 2q48 13 53 22q9 9 -4 39l28 7q22 -60 -6 -67q-26 -12 -86 -27q-48 -11 -61 -8q-12 2 -20 11q-5 6 -14 35q-4 14 -6 28q-8 50 -23 60zM448 463
q-4 -15 -6 -31q4 -58 1 -54q-2 -1 -4 -1q-3 0 -5 1q-4 2 -8 3q-3 2 -13 -10l-23 22q29 24 33 73zM443 365q8 6 19 -26q9 -24 14 -50l6 -25l-30 -8q-2 10 -4 25q-5 28 -6 55q0 6 -1 11q-1 19 2 18v0zM525 493q3 -14 15 -14q27 4 51 15l7 -26l-5 -1q-23 -4 -46 -10
q-12 -16 1 -18q10 1 19 4q17 3 23 5q11 -1 13 -8v-3q0 -3 -1 -6v-7q0 -5 1 -10q4 -14 10 -27q2 -8 -1 -12q-2 -2 -19 -6l-24 -5q-11 -8 -14 -20q3 -13 14 -18q9 -1 18 -1q25 0 48 9l3 -33q-13 -2 -26 -2q-25 0 -48 6h-1q-20 -4 -23 -8q-14 -20 -37 -31l-17 24q29 7 32 17
q2 9 -23 17l12 20q15 -11 21 -10q6 3 6 10v0q-5 5 -12 6l-10 -3q-9 -3 -18 -4l-5 -1q-2 -2 -5 -2t-5 3q-2 7 -2 14v4v9l-2 5q-3 17 -7 19q-15 7 -10 15q10 7 22 10h7q8 0 16 -3q1 -3 -3 -9q-5 -7 -7 -16q-5 -21 23 -22l14 8q1 0 4 7.5t5 7.5h1q4 0 8 -3h1q7 -3 15 -3h6
q11 2 13 13q2 16 -8 21q-13 6 -26 -9q-1 -2 -2 -5q-2 -10 -6 -9q-9 1 -11 9q-7 6 -16 7q-5 1 -7 3q-4 4 7 12q5 3 8 9q1 10 -15 9q-26 -5 -51 -16l-6 24q24 4 47 12q15 8 9 23zM766 547h1q51 13 62 12q16 0 11 -10q-1 -5 3 -25l3 -14q11 -42 29 -96q17 -42 1 -52
q-20 -9 -56 4l11 27q22 -12 24 2q-1 23 -15 26h-5q-19 0 -34 -11q-6 -6 -6 -14v-5q6 -21 14 -41l-34 -9q-2 26 -8 51q-4 11 -23 14q-8 2 -4 7q4 7 11 10q5 6 7 12q0 20 -30 18q-16 -2 -27 -13q-6 -7 0 -19q8 -7 18 -7h1q12 -3 14 -6q0 -7 -8 -15q-19 -16 -17 -25
q2 -35 -3 -46l-34 1q22 50 -2 125q-13 45 -30 40l-1 23q36 13 55 9q7 -1 8 -6q0 -6 -6 -10q-1 -2 -3 -3q-12 -11 -8 -17q8 -13 31 -9q18 2 25 13q2 4 2 8q0 7 -7 10q0 1 -8 2q-12 2 -18 4q-7 5 -3 10q12 12 59 25zM793 529q-23 -3 -28 -18q-6 -15 19 -16q36 4 36 21
q-1 17 -27 13zM810 474q-22 -4 -30 -14q-7 -12 9 -22q30 -5 44 12q4 6 4 12q0 3 -1 5q-7 10 -26 7v0zM637 -112q-62 -16 -125 -16q-104 0 -199 40.5t-163.5 109t-109 163.5t-40.5 199t40.5 199t109 163.5t163.5 109t199 40.5q108 0 213 -52t181 -141t102 -194
q16 -61 16 -125q0 -108 -52 -213t-141 -181t-194 -102zM404 813q-91 -23 -168 -88.5t-122 -156t-45 -184.5q0 -90 35.5 -172t94.5 -141t141 -94t172 -35t172 35t141 94t94 141t35 172q0 55 -13 108q-23 91 -88.5 168t-156.5 121.5t-185 44.5q-54 0 -107 -13zM192 493
q32 95 126 162.5t194 67.5q55 0 122.5 -26.5t107.5 -64.5l60 15q-48 54 -133 91.5t-157 37.5q-127 0 -238.5 -87t-141.5 -211zM832 275q-32 -95 -126 -162.5t-194 -67.5q-55 0 -122.5 26.5t-107.5 64.5l-60 -15q48 -53 133 -91t157 -38q127 0 238.5 87.5t141.5 210.5z" />
    <glyph glyph-name="baoyou" unicode="&#xe68e;" 
d="M434 215q-10 -12 -36 -16q-109 -7 -229 2q-38 2 -38 38v79h185q-2 25 -2 76t2 76h-221q27 36 46 65h253q0 -95 -4 -196q-4 -31 -14 -35q-9 -5 -66 -7q13 -20 19 -46q54 6 77 18q22 12 24 45l6 183q2 41 2 72h-275q20 38 36 53q-23 6 -51 23q-22 -58 -58 -109
q-35 -49 -89 -93q20 -12 35 -30q40 36 53 51v-236q0 -63 67 -63q122 -6 255 0q42 0 57 13q16 12 35 76q-29 4 -48 21q-10 -48 -21 -60zM131 435h141v-80h-141v80zM1010 349q-16 36 -44 77q7 23 55 166h-175q2 -43 2 -92v-268q0 -49 -2 -90h38v421h86q-22 -82 -44 -139
q49 -74 55 -110q6 -35 -11 -43.5t-55 -10.5q17 -21 19 -42q44 8 64 21q21 12 24 43q5 31 -12 67zM712 529q0 64 2 105h-42q2 -22 2 -105h-103q2 -33 2 -176q0 -141 -2 -177h40v44h166v-44h38q-2 23 -2 171q0 149 2 182h-103zM674 251h-63v116h63v-116zM674 397h-63v101h63
v-101zM777 251h-65v116h65v-116zM777 397h-65v101h65v-101z" />
    <glyph glyph-name="icon-yizhongzhi" unicode="&#xe640;" 
d="M311 444q17 2 16 -7v-2q0 -4 -1 -8q-2 -7 -2 -14.5t2 -14.5q1 -5 5 -15q6 -20 8 -25q4 -12 -5 -15q-14 -3 -38 -10q-20 -7 -40 -11q-26 -6 -33 4q-4 5 20 14q11 5 29 11q21 7 26 14q15 12 2 34q-9 18 -45 9q-61 -14 -120 -36l-7 27q28 6 73 18l29 7q31 9 73 18zM165 367
q6 -8 10 -17q11 -18 14 -19t20 -4q1 -1 3 -1q4 -1 5 -3v-1q0 -3 -3 -5q-2 -4 -6 -6q-12 -10 -13 -20q0 -29 14 -41q15 -15 74 3q48 12 53 22q9 9 -4 39l28 7q22 -60 -7 -67q-25 -12 -85 -27q-48 -11 -61 -8q-12 2 -20 11q-6 6 -14 35q-4 14 -6 28q-8 49 -23 60zM386 440
q18 5 37 7q16 -1 17 -8q1 -4 -6 -11v0v-1h-1q-14 -11 -8 -38l8 -35q7 -17 28 -15l15 4q14 8 16 24q1 4 1 8t-1 8v4v4q1 14 6 15q6 0 9 -11l3 -8q4 -8 7 -16q5 -10 14 -15l2 -1q14 -5 14 -8q1 -4 -9 -11q-6 -7 -6 -16q2 -17 10 -33l-32 -8q-1 15 -4 29q-5 15 -23 10
q-13 -4 -52 -14q-17 -6 -17 13q-6 43 -11 70q-5 30 -18 35q-12 11 1 18zM487 496q5 -23 24 -22q5 0 50 9q9 1 12 2q7 1 10 -2t3 -8q-3 -10 -3 -19q0 -6 1 -11q5 -20 12 -39q3 -8 7 -20q5 -16 7 -22q7 -12 -8 -17q-16 -4 -32 -6q-21 0 -22 7q-2 4 15 14q19 8 11 33
q-7 30 -10 37q-6 24 -43 17q-18 -6 -20 -20q-1 -15 -7 -18q-5 -1 -12 10q-5 10 -21 13q-18 2 -20 8q-2 5 12 12q19 12 10 36zM663 507q27 -42 35 -91q5 -33 -3 -33q-7 -1 -15 19q-27 80 -51 96zM744 559q1 -15 7 -30q3 -12 20 -21q8 -3 3 -10q-8 -9 -8 -22q0 -3 1 -7l4 -18
l4 -18q12 -47 42 -38q27 5 53 15l7 -28q-57 -11 -110 -25q-51 -13 -97 -27l-7 26l3 1h1q6 0 13 2q5 0 12 18q1 3 5 3q3 0 5 -2q13 -8 22 -5q37 5 29 42q-7 38 -17 75q-9 32 -21 62zM836 539l8 -33q-46 -13 -66 0q1 15 58 33v0zM637 -112q-62 -16 -125 -16q-104 0 -199 40.5
t-163.5 109t-109 163.5t-40.5 199t40.5 199t109 163.5t163.5 109t199 40.5q108 0 213 -52t181 -141t102 -194q16 -61 16 -125q0 -108 -52 -213t-141 -181t-194 -102zM404 813q-91 -23 -168 -88.5t-122 -156t-45 -184.5q0 -90 35.5 -172t94.5 -141t141 -94t172 -35t172 35
t141 94t94 141t35 172q0 55 -13 108q-23 91 -88.5 168t-156.5 121.5t-185 44.5q-54 0 -107 -13zM192 493q32 95 126 162.5t194 67.5q55 0 122.5 -26.5t107.5 -64.5l60 15q-48 54 -133 91.5t-157 37.5q-127 0 -238.5 -87t-141.5 -211zM832 275q-32 -95 -126 -162.5
t-194 -67.5q-55 0 -122.5 26.5t-107.5 64.5l-60 -15q48 -53 133 -91t157 -38q127 0 238.5 87.5t141.5 210.5z" />
    <glyph glyph-name="icon-yishixiao" unicode="&#xe641;" 
d="M311 444q17 2 16 -7v-2q0 -4 -1 -8q-2 -7 -2 -14.5t2 -14.5q1 -5 5 -15q6 -20 8 -25q4 -12 -5 -15q-14 -3 -38 -10q-20 -7 -40 -11q-26 -6 -33 4q-4 5 20 14q11 5 29 11q21 7 26 13q15 13 2 35q-9 18 -45 9q-61 -14 -120 -37l-7 28q28 6 73 18l29 7q31 9 73 18zM165 367
q6 -8 10 -17q11 -18 14 -19t20 -4q1 -1 3 -1q4 -1 5 -3v-1q0 -3 -3 -5q-2 -4 -6 -6q-12 -10 -13 -20q0 -29 14 -40q15 -15 74 2q48 12 53 22q9 9 -4 39l28 7q22 -60 -7 -67q-25 -12 -85 -27q-48 -11 -61 -8q-12 2 -20 11q-6 6 -14 35q-4 14 -6 28q-8 50 -23 60zM485 496
q2 -21 27 -23q14 -2 63 17l8 -31q-37 -4 -72 -15q-12 -7 -16 -20l-2 -4q-2 -1 -4 -1t-4 1h-1q-18 19 -39 7q-19 -11 -32 -49l-31 14q24 25 27 78h19q1 -18 20 -15q11 3 18 20v8v8zM488 411q6 3 12 -5q9 -11 23 -11q40 8 78 22l7 -29h-1q-13 0 -26 -3q-17 -4 -34 -9
q-9 -6 -9 -17v0q1 -4 -1 -6q-2 -1 -10 1q-6 2 -12 2q-7 -2 -11 -7q-27 -71 -69 -91l-21 24q36 13 55 52l2 2q3 6 3 13v0q-2 7 -21 3q-26 -5 -49 -16l-2 -1l-7 29q32 4 62 14q19 8 27 28q3 5 4 5zM540 354q3 4 7 2q2 -2 4 -2q38 -24 74 -18l-6 -29h-6q-20 0 -38 9
q-22 7 -34 25q-6 8 -1 13v0zM832 564l7 -25q-14 1 -19 -20q-3 -5 -7 0q-8 12 -26 4q-14 -2 -18 -12q-2 -4 -4 -9q-3 -7 -4 -10l-31 11l10 10l1 2q-27 -3 -53 -10q-28 -7 -55 -17l-6 27q14 1 28 5q19 5 9 20l24 6q0 -19 25 -12q4 1 15 4l6 2l7 -26q11 17 11 37q0 6 -1 12
l21 1q-3 -17 15 -14q28 8 45 14zM663 426l-27 12q20 20 30 57l19 -7q-5 -33 -22 -62zM767 393l-13 -25q-32 21 -33 9q-14 -25 -28 -47l-28 15q25 25 30 50q0 15 -30 23l11 21q17 -10 26 -9q8 -1 13 23l21 -5q-5 -12 -5 -25q0 -12 5 -14q17 -9 31 -16v0zM754 464l-18 -16
q-17 24 -40 44l17 15q23 -19 41 -43zM881 397l-17 -26q-31 17 -43 24q-7 5 -14 -13q-13 -19 -23 -33l-29 16q11 7 21.5 21t13.5 26q2 4 2 8q0 8 -6 16q-9 16 -22 31q-9 14 -10 15l20 15q14 -24 21 -29q8 -6 12 4q1 2 1 4q3 20 5 28q2 4 6 4q3 0 4 -5q4 -21 4 -43v-5v-2v-4
v-5q0 -7 2 -13q16 -23 52 -34zM637 -112q-62 -16 -125 -16q-104 0 -199 40.5t-163.5 109t-109 163.5t-40.5 199t40.5 199t109 163.5t163.5 109t199 40.5q108 0 213 -52t181 -141t102 -194q16 -61 16 -125q0 -108 -52 -213t-141 -181t-194 -102zM404 813q-91 -23 -168 -88.5
t-122 -156t-45 -184.5q0 -90 35.5 -172t94.5 -141t141 -94t172 -35t172 35t141 94t94 141t35 172q0 55 -13 108q-23 91 -88.5 168t-156.5 121.5t-185 44.5q-54 0 -107 -13zM192 493q32 95 126 162.5t194 67.5q55 0 122.5 -26.5t107.5 -64.5l60 15q-48 54 -133 91.5
t-157 37.5q-127 0 -238.5 -87t-141.5 -211zM832 275q-32 -95 -126 -162.5t-194 -67.5q-55 0 -122.5 26.5t-107.5 64.5l-60 -15q48 -53 133 -91t157 -38q127 0 238.5 87.5t141.5 210.5z" />
    <glyph glyph-name="icon-yitingzhi" unicode="&#xe642;" 
d="M311 444q17 2 16 -7v-2q0 -4 -1 -8q-2 -7 -2 -14.5t2 -14.5q1 -5 5 -15q6 -20 8 -25q4 -12 -5 -15q-14 -3 -38 -10q-20 -7 -40 -11q-26 -6 -33 4q-4 5 20 14q11 5 29 11q21 7 26 13q15 13 2 35q-9 18 -45 9q-61 -14 -120 -37l-7 28q28 6 73 18l29 7q31 9 73 18zM165 367
q6 -8 10 -17q11 -18 14 -19t20 -4q1 -1 3 -1q4 -1 5 -3v-1q0 -3 -3 -5q-2 -4 -6 -6q-12 -10 -13 -20q0 -29 14 -41q15 -14 74 3q48 12 53 22q9 9 -4 39l28 7q22 -60 -7 -67q-25 -12 -85 -27q-48 -11 -61 -8q-12 2 -20 11q-6 6 -14 35q-4 14 -6 28q-8 49 -23 60zM431 475
q-1 -22 -3 -37q-1 -5 -1 -10q0 -10 3 -19q5 -24 -4 -26q0 -1 -1 -1q-5 0 -8 4q-8 4 -12 2q-7 -3 -14 -5l-16 27q25 7 36 67zM427 370q3 8 13 -4q15 -46 26 -94l-31 -8q-13 80 -8 106zM508 506q11 -7 23 -7q6 0 11 1q15 4 33 10l6 -22q-64 -14 -139 -37l-6 22q21 3 41 10
q16 4 12 18zM538 469q36 9 37 3q2 -6 2 -13v-1q-1 -1 -1 -3v-1l2 -4q4 -4 4 -10v-4q0 -5 -19 -9l-23 -6q-10 -2 -26 -7q-17 -5 -34 -8q-20 -6 -18 7q1 2 1 3q0 7 -3 14q-2 3 -6 4q-2 1 -2 2q-4 7 4 11q16 5 25 5q11 2 15 -3q1 -4 -7 -8t-7 -9q5 -5 12 -5q17 2 33 6l13 3
q22 3 18 14q-4 4 -9 4h-1q-6 -1 -19 -3q-12 -3 -22 -5h-1q-3 0 -6 2q-1 1 -1 3t1 3q11 8 38 15v0zM461 391q13 4 27 5t14 -8q0 -3 -9 -9q-2 -1 -3 -3q-6 -9 -8 -20l-26 -6v3q0 10 3 20l2 6q-1 2 -3 4q-4 3 3 8zM607 389l7 -26q-16 -1 -30 -5q-11 -3 -11 -13q0 -2 1 -3
q0 -5 2 -10l2 -8q5 -21 -9 -25q-12 -3 -23 -3q-14 0 -28 4l6 25q16 -8 23 -5q10 3 4 21q-1 8 -12 5q-32 -9 -63 -22l-7 26q21 6 60 16q51 14 78 23v0zM595 423v0q5 0 5 -5v-1q0 -4 3 -7q6 -8 11 -18l-23 -6q-7 13 -26 10q-64 -14 -62 -2q4 9 34 17q52 12 58 12v0zM663 507
q27 -42 35 -91q5 -33 -3 -33q-7 -1 -15 19q-27 80 -51 96zM744 559q1 -15 7 -30q3 -12 20 -21q8 -3 3 -10q-8 -9 -8 -22q0 -3 1 -7l4 -18l4 -18q12 -47 42 -38q27 5 53 15l7 -28q-57 -11 -110 -25q-51 -13 -97 -27l-7 26l3 1h1q7 0 13 2q5 0 12 18q1 3 5 3q3 0 5 -2
q13 -8 22 -5q37 5 28 42q-6 38 -17 75q-8 32 -20 62zM836 539l8 -33q-46 -13 -66 0q1 15 58 33v0zM637 -112q-62 -16 -125 -16q-104 0 -199 40.5t-163.5 109t-109 163.5t-40.5 199t40.5 199t109 163.5t163.5 109t199 40.5q108 0 213 -52t181 -141t102 -194q16 -61 16 -125
q0 -108 -52 -213t-141 -181t-194 -102zM404 813q-91 -23 -168 -88.5t-122 -156t-45 -184.5q0 -90 35.5 -172t94.5 -141t141 -94t172 -35t172 35t141 94t94 141t35 172q0 55 -13 108q-23 91 -88.5 168t-156.5 121.5t-185 44.5q-54 0 -107 -13zM192 493q32 95 126 162.5
t194 67.5q55 0 122.5 -26.5t107.5 -64.5l60 15q-48 54 -133 91.5t-157 37.5q-127 0 -238.5 -87t-141.5 -211zM832 275q-32 -95 -126 -162.5t-194 -67.5q-55 0 -122.5 26.5t-107.5 64.5l-60 -15q48 -53 133 -91t157 -38q127 0 238.5 87.5t141.5 210.5z" />
    <glyph glyph-name="icon-yiquxiao" unicode="&#xe643;" 
d="M311 444q17 2 16 -7v-2q0 -4 -1 -8q-2 -7 -2 -14.5t2 -14.5q1 -5 5 -15q6 -20 8 -25q4 -12 -5 -15q-14 -3 -38 -10q-20 -7 -40 -11q-26 -6 -33 4q-4 5 20 14q11 5 29 11q21 7 26 14q15 12 2 34q-9 18 -45 9q-61 -14 -120 -36l-7 27q28 6 73 18l29 7q31 9 73 18zM165 367
q6 -8 10 -17q11 -18 14 -19t20 -4q1 -1 3 -1q4 -1 5 -3v-1q0 -3 -3 -5q-2 -4 -6 -6q-12 -10 -13 -20q0 -29 14 -41q15 -15 74 3q48 12 53 22q9 9 -4 39l28 7q22 -60 -7 -67q-25 -12 -85 -27q-48 -11 -61 -8q-12 2 -20 11q-6 6 -14 35q-4 14 -6 28q-8 49 -23 60zM472 483
q8 2 16 3l6 -22q-5 -1 -7 -5q-1 -4 -1 -8q0 -11 3 -21l2 -6q5 -25 -3 -28q-7 0 -11 5q-5 4 -8 3q-13 -2 -26 -7q-10 -7 -10 -19v-2q0 -6 10 -11q6 -3 6.5 -6t-3.5 -8q-6 -6 -6 -15v0q1 -17 14 -18q12 -3 27 8q5 2 5 8q1 4 3 7q-2 15 -16 16q-19 -2 -20 3q-1 9 16 14
q9 5 14 13q3 6 5 6q7 3 22 -40q3 -10 13 -4l8 -16q-7 -4 -9 -12q-2 -11 7 -34l-25 -6q1 25 -15 21q-23 -6 -65 -31l-15 20q18 14 14 27q-1 8 -4 28q-4 27 -5 33q-10 39 -16 46q-6 10 -19 5l-7 28q43 8 100 25zM427 445q-8 -4 -6 -19q6 -12 17 -10q8 1 16 5q11 3 11 14v2
q-1 14 -16 13zM543 498q30 9 37 1q5 -26 -6 -41q-3 -1 -8 4q-9 9 -22 11q-17 -4 -33 -11q-10 -3 -14 -4l-6 26q32 9 52 14zM526 453q5 -8 14 -27q13 -27 17 -24q5 2 9 27q0 5 2 10q1 7 4 7q3 1 6 -5q6 -20 6 -41v-4v-5q0 -7 2 -14q1 -11 7 -20q15 -19 38 -26l-18 -25
q-10 6 -19 13q-8 8 -15 5q-6 -2 -15 -20q-3 -8 -8 -15l-31 19q34 26 24 59q-7 16 -16 30q-15 22 -26 46zM639 538q31 -13 59 -33l-14 -24q-6 3 -20 11q-18 11 -39 20zM641 466q32 -6 63 -17l-6 -25q-30 9 -61 14zM703 421l23 -7q-12 -46 -34 -87l-28 15q20 26 39 79v0z
M708 550q11 -4 37 -23l1 -1l-11 -18q-13 5 -25 13l-14 8zM765 568q6 -27 13 -37q9 -13 21 -12q17 6 35 6q5 -2 6 -7q-3 -6 -3 -14q0 -2 1 -5q5 -23 10 -44t14 -41q4 -11 4 -13q4 -19 -7 -26q-11 -4 -22 -4t-22 4l8 27q11 -9 18 0q1 3 -4 9q-6 2 -23 -2q-19 -5 -38 -11
q-15 -5 -15 -16q3 -16 10 -32l-30 -7q-1 18 -5 47l-3 27q-4 26 -11 51q-4 9 -13 12q-7 8 5 17h2q13 6 27 10q9 6 11 24q-3 17 -9 32zM799 497q-23 -4 -44 -13l-6 -2q-4 -5 -7 -12q1 -6 3 -11q7 -2 14 -2v0q8 -4 5 -10q-10 -7 -12 -18q2 -12 15 -10q3 0 14 4q28 8 41 11
q11 7 10 13q-5 10 -21 8q-38 -9 -40 -1q-3 2 4 7q14 8 30 11q15 6 13 16q-6 8 -17 8h-1zM799 572l23 -4q-2 -23 -14 -42l-20 8q9 18 11 38zM637 -112q-62 -16 -125 -16q-104 0 -199 40.5t-163.5 109t-109 163.5t-40.5 199t40.5 199t109 163.5t163.5 109t199 40.5
q108 0 213 -52t181 -141t102 -194q16 -61 16 -125q0 -108 -52 -213t-141 -181t-194 -102zM404 813q-91 -23 -168 -88.5t-122 -156t-45 -184.5q0 -90 35.5 -172t94.5 -141t141 -94t172 -35t172 35t141 94t94 141t35 172q0 55 -13 108q-23 91 -88.5 168t-156.5 121.5
t-185 44.5q-54 0 -107 -13zM192 493q32 95 126 162.5t194 67.5q55 0 122.5 -26.5t107.5 -64.5l60 15q-48 54 -133 91.5t-157 37.5q-127 0 -238.5 -87t-141.5 -211zM832 275q-32 -95 -126 -162.5t-194 -67.5q-55 0 -122.5 26.5t-107.5 64.5l-60 -15q48 -53 133 -91t157 -38
q127 0 238.5 87.5t141.5 210.5z" />
    <glyph glyph-name="icon-gouwuche" unicode="&#xe644;" 
d="M959 694h-544q-11 -1 -18 -9t-7 -18.5t7 -18t18 -8.5h544q17 0 12 -17l-122 -398h-538q-13 0 -26.5 10t-17.5 23l-216 620q-3 7 -10 12.5t-15 5.5q-4 0 -8 -1q-8 -3 -13 -10.5t-5 -15.5q0 -5 2 -9l216 -619q10 -30 36.5 -49.5t56.5 -19.5h577l5 19l128 417q10 34 -9 60
t-53 26zM285 88q-43 0 -73 -32t-30 -76.5t30 -76t73 -31.5t73.5 31.5t30.5 76t-30.5 76.5t-73.5 32zM285 -74h-2q-22 0 -38 15.5t-16 38t16 38.5t38 16t38 -16t16 -38v-1q0 -22 -15 -37.5t-37 -15.5v0zM829 88q-43 0 -73 -32t-30 -76.5t30 -76t73 -31.5t73.5 31.5t30.5 76
t-30.5 76.5t-73.5 32zM829 -74h-2q-22 0 -38 15.5t-16 38t16 38.5t38.5 16t38 -16t15.5 -38v-1q0 -22 -15 -37.5t-37 -15.5v0z" />
    <glyph glyph-name="icon-shouyetianse" unicode="&#xe645;" 
d="M1024 394v0q0 11 -6 20q-2 4 -5 6l-450 444q-32 36 -51 32q-19 4 -51 -32l-450 -444q-3 -2 -5 -6q-6 -9 -6 -20q0 -16 11 -27q9 -9 20 -11h106v-383q0 -42 30 -71.5t71 -29.5h1h547v0q42 0 72 29.5t30 71.5v383h101q14 1 24 11q11 11 11 26v1z" />
    <glyph glyph-name="icon-leimutianse" unicode="&#xe646;" 
d="M243.5 896q-100.5 0 -172 -71.5t-71.5 -172t71.5 -171.5t171.5 -71h243v243v0q0 100 -71 171.5t-171.5 71.5zM243 358q-100 0 -171.5 -71t-71.5 -171.5t71.5 -172t172 -71.5t171.5 71.5t71 171.5v243h-243zM781 410v0q100 0 171.5 71t71.5 171.5t-71.5 172t-172 71.5
t-171.5 -71.5t-71 -171.5v-243h243zM781 358h-243v-243q0 -100 71 -171.5t172 -71.5q23 0 54.5 7.5t52.5 17.5q15 7 15 23q0 11 -8 18.5t-18 7.5q-6 0 -11 -3q-41 -20 -85 -20q-80 0 -136 56.5t-56 135.5v192h192q79 0 135.5 -56t56.5 -136q0 -28 -8 -54q-1 -4 -1 -7
q0 -11 7.5 -18.5t18.5 -7.5q8 0 15 5.5t9 12.5q10 34 10 69q0 101 -71 172t-172 72v-1z" />
    <glyph glyph-name="icon-gouwuchetianse" unicode="&#xe647;" 
d="M285 88q-43 0 -73 -32t-30 -76.5t30 -76t73 -31.5t73.5 31.5t30.5 76t-30.5 76.5t-73.5 32zM285 -74h-2q-22 0 -38 15.5t-16 38t16 38.5t38 16t38 -16t16 -38v-1q0 -22 -15 -37.5t-37 -15.5v0zM959 694h-544q-3 0 -5 -1h-299l-60 185q-3 7 -10 12.5t-15 5.5q-4 0 -8 -1
q-8 -3 -13 -10.5t-5 -15.5q0 -5 2 -9l216 -619q10 -30 36.5 -49.5t56.5 -19.5h577l5 19l128 417q10 34 -9 60t-53 26zM829 88q-43 0 -73 -32t-30 -76.5t30 -76t73 -31.5t73.5 31.5t30.5 76t-30.5 76.5t-73.5 32zM829 -74h-2q-22 0 -38 15.5t-16 38t16 38.5t38.5 16t38 -16
t15.5 -38v-1q0 -22 -15 -37.5t-37 -15.5v0z" />
    <glyph glyph-name="icon-gerenzhongxintianse" unicode="&#xe648;" 
d="M1012 -12q-29 125 -129.5 217.5t-240.5 124.5q63 36 107.5 113t44.5 150v1q0 125 -86.5 213.5t-208.5 88.5t-208 -88.5t-86 -213.5v-2q0 -75 46.5 -153t112.5 -113q-58 -15 -112 -43v0q-27 -14 -53 -31l-4 -3q-11 -7 -21 -15l-3 -3q-12 -9 -23 -19l-2 -2q-9 -8 -18 -17
l-5 -5l-16 -16l-3 -4l-18 -22l-2 -3q-7 -9 -14 -19l-3 -6q-7 -10 -13 -21l-1 -2q-14 -24 -25 -51l-1 -3q-5 -12 -9 -25v-2q-8 -26 -13 -54q0 -1 -0.5 -3t-0.5 -3l-2 -22q0 -1 -0.5 -3.5l-0.5 -2.5q-1 -14 -1 -28v-26h1024v26q0 46 -12 90z" />
  </font>
</defs>
</svg>
